G04 Layer: BottomSolderMaskLayer*
G04 EasyEDA v6.4.7, 2020-12-06T11:07:03+08:00*
G04 Gerber Generator version 0.2*
G04 Scale: 100 percent, Rotated: No, Reflected: No *
G04 Dimensions in millimeters *
G04 leading zeros omitted , absolute positions ,3 integer and 3 decimal *
%FSLAX33Y33*%
%MOMM*%
G90*
D02*

%ADD34C,2.203196*%
%ADD36C,1.778000*%
%ADD39C,1.903197*%
%ADD41C,2.003196*%
%ADD44C,1.402080*%
%ADD45C,1.503197*%
%ADD46C,1.803197*%

%LPD*%
G54D34*
G01X41099Y19543D02*
G01X41099Y19043D01*
G01X43639Y19543D02*
G01X43639Y19043D01*
G36*
G01X52110Y15902D02*
G01X52110Y17680D01*
G01X53888Y17680D01*
G01X53888Y15902D01*
G01X52110Y15902D01*
G37*
G54D36*
G01X52999Y19332D03*
G36*
G01X27609Y18442D02*
G01X27609Y20220D01*
G01X29387Y20220D01*
G01X29387Y18442D01*
G01X27609Y18442D01*
G37*
G01X28500Y16792D03*
G36*
G01X52110Y9903D02*
G01X52110Y11681D01*
G01X53888Y11681D01*
G01X53888Y9903D01*
G01X52110Y9903D01*
G37*
G01X52999Y8252D03*
G36*
G01X37457Y17942D02*
G01X37457Y20645D01*
G01X39662Y20645D01*
G01X39662Y17942D01*
G01X37457Y17942D01*
G37*
G36*
G01X35951Y53403D02*
G01X35951Y55181D01*
G01X37729Y55181D01*
G01X37729Y53403D01*
G01X35951Y53403D01*
G37*
G01X39380Y54292D03*
G01X41920Y54292D03*
G01X44460Y54292D03*
G01X47000Y54292D03*
G01X49540Y54292D03*
G01X52080Y54292D03*
G01X54620Y54292D03*
G01X57160Y54292D03*
G36*
G01X36337Y10840D02*
G01X36337Y12745D01*
G01X38242Y12745D01*
G01X38242Y10840D01*
G01X36337Y10840D01*
G37*
G54D39*
G01X39829Y11793D03*
G01X42369Y11793D03*
G01X44909Y11793D03*
G36*
G01X12199Y51681D02*
G01X12199Y53682D01*
G01X14201Y53682D01*
G01X14201Y51681D01*
G01X12199Y51681D01*
G37*
G54D41*
G01X13200Y50142D03*
G01X13200Y47602D03*
G01X13200Y45062D03*
G01X13200Y42522D03*
G01X13200Y39982D03*
G01X13200Y37442D03*
G01X13200Y34902D03*
G36*
G01X27439Y51681D02*
G01X27439Y53682D01*
G01X29441Y53682D01*
G01X29441Y51681D01*
G01X27439Y51681D01*
G37*
G01X28440Y50142D03*
G01X28440Y47602D03*
G01X28440Y45062D03*
G01X28440Y42522D03*
G01X28440Y39982D03*
G01X28440Y37442D03*
G01X28440Y34902D03*
G01X55001Y23753D03*
G01X55001Y26293D03*
G36*
G01X54000Y27945D02*
G01X54000Y29723D01*
G01X56001Y29723D01*
G01X56001Y27945D01*
G01X54000Y27945D01*
G37*
G01X26595Y28833D03*
G01X26595Y26293D03*
G36*
G01X25593Y22865D02*
G01X25593Y24643D01*
G01X27597Y24643D01*
G01X27597Y22865D01*
G01X25593Y22865D01*
G37*
G01X32539Y3302D03*
G01X29999Y3302D03*
G36*
G01X26570Y2301D02*
G01X26570Y4302D01*
G01X28348Y4302D01*
G01X28348Y2301D01*
G01X26570Y2301D01*
G37*
G01X54040Y3302D03*
G01X51500Y3302D03*
G36*
G01X48072Y2301D02*
G01X48072Y4302D01*
G01X49850Y4302D01*
G01X49850Y2301D01*
G01X48072Y2301D01*
G37*
G54D44*
G01X8040Y47870D03*
G01X2960Y47870D03*
G01X5500Y50715D03*
G54D36*
G01X73779Y49293D03*
G01X71239Y49293D03*
G01X68699Y49293D03*
G01X66159Y49293D03*
G01X63619Y49293D03*
G01X61079Y49293D03*
G01X58539Y49293D03*
G01X55999Y49293D03*
G01X53459Y49293D03*
G01X50919Y49293D03*
G01X48379Y49293D03*
G01X45839Y49293D03*
G01X43299Y49293D03*
G01X40759Y49293D03*
G36*
G01X37330Y48404D02*
G01X37330Y50182D01*
G01X39108Y50182D01*
G01X39108Y48404D01*
G01X37330Y48404D01*
G37*
G01X73779Y34053D03*
G01X71239Y34053D03*
G01X68699Y34053D03*
G01X66159Y34053D03*
G01X63619Y34053D03*
G01X61079Y34053D03*
G01X58539Y34053D03*
G01X55999Y34053D03*
G01X53459Y34053D03*
G01X50919Y34053D03*
G01X48379Y34053D03*
G01X45839Y34053D03*
G01X43299Y34053D03*
G01X40759Y34053D03*
G36*
G01X37330Y33164D02*
G01X37330Y34942D01*
G01X39108Y34942D01*
G01X39108Y33164D01*
G01X37330Y33164D01*
G37*
G54D41*
G01X32049Y11543D03*
G01X25949Y11543D03*
G01X25949Y7043D03*
G01X32049Y7043D03*
G54D45*
G01X49022Y28304D03*
G01X49022Y26305D03*
G54D46*
G01X32999Y28563D03*
G01X32999Y26023D03*
M00*
M02*
