;Layer: Drill PTH
;EasyEDA v6.4.7, 2020-12-06T11:07:03+08:00
;10
;Gerber Generator version 0.2
M48
METRIC,LZ,000.000
;Holesize 1 = 0.798 METRIC
T01C0.798
;Holesize 2 = 0.800 METRIC
T02C0.800
;Holesize 3 = 0.889 METRIC
T03C0.889
;Holesize 4 = 1.000 METRIC
T04C1.000
;Holesize 5 = 1.101 METRIC
T05C1.101
;Holesize 6 = 1.200 METRIC
T06C1.200
;Holesize 7 = 1.400 METRIC
T07C1.400
%
G05
G90
T01
X+008039Y+047870
X+002959Y+047870
X+005499Y+050715
T02
X+049022Y+028304
X+049022Y+026305
T03
X+052999Y+016793
X+052999Y+019333
X+028499Y+019333
X+028499Y+016793
X+052999Y+010792
X+052999Y+008252
X+036840Y+054292
X+039380Y+054292
X+041920Y+054292
X+044460Y+054292
X+047000Y+054292
X+049540Y+054292
X+052080Y+054292
X+054620Y+054292
X+057160Y+054292
X+073779Y+049293
X+071239Y+049293
X+068699Y+049293
X+066159Y+049293
X+063619Y+049293
X+061079Y+049293
X+058539Y+049293
X+055999Y+049293
X+053459Y+049293
X+050919Y+049293
X+048379Y+049293
X+045839Y+049293
X+043299Y+049293
X+040759Y+049293
X+038219Y+049293
X+073779Y+034053
X+071239Y+034053
X+068699Y+034053
X+066159Y+034053
X+063619Y+034053
X+061079Y+034053
X+058539Y+034053
X+055999Y+034053
X+053459Y+034053
X+050919Y+034053
X+048379Y+034053
X+045839Y+034053
X+043299Y+034053
X+040759Y+034053
X+038219Y+034053
T04
X+032801Y+043611
X+051300Y+043848
X+035750Y+050777
X+045874Y+037304
X+032050Y+011542
X+025949Y+011542
X+025949Y+007043
X+032050Y+007043
X+033000Y+028563
X+033000Y+026023
T05
X+037289Y+011793
X+039829Y+011793
X+042369Y+011793
X+044909Y+011793
T06
X+013200Y+052682
X+013200Y+050142
X+013200Y+047602
X+013200Y+045062
X+013200Y+042522
X+013200Y+039982
X+013200Y+037442
X+013200Y+034902
X+028440Y+052682
X+028440Y+050142
X+028440Y+047602
X+028440Y+045062
X+028440Y+042522
X+028440Y+039982
X+028440Y+037442
X+028440Y+034902
X+055001Y+023752
X+055001Y+026292
X+055001Y+028832
X+026595Y+028832
X+026595Y+026292
X+026595Y+023752
X+032539Y+003302
X+029999Y+003302
X+027459Y+003302
X+054039Y+003302
X+051499Y+003302
X+048959Y+003302
T07
X+041099Y+019293
X+043639Y+019293
X+038559Y+019293
M30
