G04 Layer: BottomSilkLayer*
G04 EasyEDA v6.4.7, 2020-12-06T11:07:03+08:00*
G04 Gerber Generator version 0.2*
G04 Scale: 100 percent, Rotated: No, Reflected: No *
G04 Dimensions in millimeters *
G04 leading zeros omitted , absolute positions ,3 integer and 3 decimal *
%FSLAX33Y33*%
%MOMM*%
G90*
D02*

%ADD12C,0.200000*%
%ADD28C,0.299999*%
%ADD30C,0.151994*%
%ADD32C,0.999998*%
%ADD33C,0.250012*%

%LPD*%

%LPD*%
G36*
G01X48270Y11147D02*
G01X33924Y11147D01*
G01X33703Y10925D01*
G01X33703Y7334D01*
G01X33803Y7241D01*
G01X33903Y7147D01*
G01X48317Y7147D01*
G01X48410Y7241D01*
G01X48503Y7334D01*
G01X48503Y10950D01*
G01X48270Y11147D01*
G37*

%LPC*%
G36*
G01X37602Y9890D02*
G01X37450Y9890D01*
G01X37450Y9699D01*
G01X37602Y9699D01*
G01X37602Y9890D01*
G37*
G36*
G01X43665Y9678D02*
G01X43421Y9898D01*
G01X43156Y9883D01*
G01X42892Y9868D01*
G01X42669Y9617D01*
G01X42682Y9554D01*
G01X42693Y9491D01*
G01X42759Y9478D01*
G01X42825Y9466D01*
G01X42897Y9657D01*
G01X43047Y9737D01*
G01X43339Y9737D01*
G01X43422Y9678D01*
G01X43507Y9619D01*
G01X43507Y9432D01*
G01X43384Y9377D01*
G01X43318Y9351D01*
G01X43231Y9320D01*
G01X43135Y9289D01*
G01X43039Y9261D01*
G01X42817Y9200D01*
G01X42727Y9108D01*
G01X42636Y9017D01*
G01X42636Y8781D01*
G01X42692Y8673D01*
G01X42748Y8563D01*
G01X43089Y8432D01*
G01X43245Y8458D01*
G01X43315Y8472D01*
G01X43388Y8492D01*
G01X43457Y8517D01*
G01X43513Y8541D01*
G01X43626Y8600D01*
G01X43680Y8729D01*
G01X43701Y8783D01*
G01X43718Y8833D01*
G01X43729Y8873D01*
G01X43734Y8898D01*
G01X43734Y8938D01*
G01X43580Y8938D01*
G01X43545Y8844D01*
G01X43510Y8751D01*
G01X43411Y8686D01*
G01X43311Y8620D01*
G01X42972Y8620D01*
G01X42769Y8824D01*
G01X42885Y9033D01*
G01X43186Y9120D01*
G01X43487Y9206D01*
G01X43673Y9392D01*
G01X43669Y9536D01*
G01X43665Y9678D01*
G37*
G36*
G01X41311Y9890D02*
G01X41160Y9890D01*
G01X41160Y9390D01*
G01X41075Y9450D01*
G01X40992Y9509D01*
G01X40722Y9509D01*
G01X40546Y9385D01*
G01X40493Y9258D01*
G01X40440Y9130D01*
G01X40440Y8998D01*
G01X40443Y8937D01*
G01X40451Y8876D01*
G01X40464Y8818D01*
G01X40482Y8761D01*
G01X40505Y8708D01*
G01X40532Y8657D01*
G01X40564Y8610D01*
G01X40600Y8567D01*
G01X40680Y8482D01*
G01X40939Y8433D01*
G01X41049Y8515D01*
G01X41160Y8597D01*
G01X41160Y8481D01*
G01X41311Y8481D01*
G01X41311Y9890D01*
G37*
G36*
G01X37185Y9890D02*
G01X37034Y9890D01*
G01X37034Y9390D01*
G01X36950Y9450D01*
G01X36866Y9509D01*
G01X36596Y9509D01*
G01X36420Y9385D01*
G01X36367Y9258D01*
G01X36315Y9130D01*
G01X36315Y8998D01*
G01X36317Y8937D01*
G01X36326Y8876D01*
G01X36338Y8818D01*
G01X36357Y8761D01*
G01X36379Y8708D01*
G01X36406Y8657D01*
G01X36438Y8610D01*
G01X36475Y8567D01*
G01X36554Y8482D01*
G01X36813Y8433D01*
G01X36923Y8515D01*
G01X37034Y8597D01*
G01X37034Y8481D01*
G01X37185Y8481D01*
G01X37185Y9890D01*
G37*
G36*
G01X42397Y9448D02*
G01X42376Y9503D01*
G01X42239Y9483D01*
G01X42219Y9075D01*
G01X42201Y8668D01*
G01X42144Y8632D01*
G01X42115Y8618D01*
G01X42080Y8607D01*
G01X42042Y8598D01*
G01X42006Y8595D01*
G01X41925Y8595D01*
G01X41749Y8738D01*
G01X41719Y9500D01*
G01X41647Y9481D01*
G01X41576Y9462D01*
G01X41576Y8481D01*
G01X41728Y8481D01*
G01X41728Y8592D01*
G01X41994Y8434D01*
G01X42247Y8482D01*
G01X42317Y8560D01*
G01X42388Y8638D01*
G01X42402Y9015D01*
G01X42405Y9093D01*
G01X42407Y9166D01*
G01X42407Y9298D01*
G01X42406Y9353D01*
G01X42404Y9397D01*
G01X42401Y9430D01*
G01X42397Y9448D01*
G37*
G36*
G01X40147Y9434D02*
G01X40043Y9516D01*
G01X39838Y9500D01*
G01X39633Y9483D01*
G01X39564Y9396D01*
G01X39515Y9329D01*
G01X39498Y9283D01*
G01X39512Y9251D01*
G01X39555Y9227D01*
G01X39617Y9203D01*
G01X39709Y9303D01*
G01X39801Y9404D01*
G01X39921Y9379D01*
G01X39970Y9367D01*
G01X40017Y9351D01*
G01X40055Y9333D01*
G01X40079Y9317D01*
G01X40117Y9278D01*
G01X40036Y9147D01*
G01X39807Y9071D01*
G01X39714Y9037D01*
G01X39628Y9002D01*
G01X39559Y8969D01*
G01X39518Y8942D01*
G01X39456Y8890D01*
G01X39456Y8668D01*
G01X39637Y8486D01*
G01X39905Y8435D01*
G01X40177Y8525D01*
G01X40233Y8634D01*
G01X40274Y8718D01*
G01X40283Y8764D01*
G01X40257Y8782D01*
G01X40194Y8785D01*
G01X40100Y8785D01*
G01X40100Y8674D01*
G01X40027Y8634D01*
G01X39990Y8619D01*
G01X39943Y8607D01*
G01X39892Y8598D01*
G01X39843Y8595D01*
G01X39733Y8595D01*
G01X39665Y8670D01*
G01X39598Y8746D01*
G01X39645Y8804D01*
G01X39693Y8861D01*
G01X39884Y8918D01*
G01X39965Y8945D01*
G01X40045Y8976D01*
G01X40114Y9006D01*
G01X40163Y9034D01*
G01X40251Y9092D01*
G01X40251Y9351D01*
G01X40147Y9434D01*
G37*
G36*
G01X35855Y9509D02*
G01X35525Y9509D01*
G01X35410Y9411D01*
G01X35295Y9314D01*
G01X35256Y9173D01*
G01X35241Y9115D01*
G01X35229Y9060D01*
G01X35220Y9015D01*
G01X35217Y8985D01*
G01X35217Y8938D01*
G01X35974Y8938D01*
G01X35974Y8782D01*
G01X35788Y8595D01*
G01X35554Y8595D01*
G01X35467Y8690D01*
G01X35379Y8785D01*
G01X35255Y8785D01*
G01X35255Y8668D01*
G01X35436Y8486D01*
G01X35570Y8460D01*
G01X35704Y8435D01*
G01X35838Y8480D01*
G01X35973Y8524D01*
G01X36119Y8711D01*
G01X36169Y9005D01*
G01X36086Y9313D01*
G01X35855Y9509D01*
G37*
G36*
G01X39001Y9509D02*
G01X38656Y9509D01*
G01X38545Y9398D01*
G01X38472Y9317D01*
G01X38440Y9259D01*
G01X38448Y9218D01*
G01X38495Y9189D01*
G01X38555Y9166D01*
G01X38661Y9280D01*
G01X38736Y9354D01*
G01X38794Y9387D01*
G01X38856Y9385D01*
G01X38939Y9352D01*
G01X39032Y9310D01*
G01X39074Y9217D01*
G01X39116Y9125D01*
G01X39116Y8796D01*
G01X39037Y8695D01*
G01X38959Y8595D01*
G01X38737Y8595D01*
G01X38661Y8671D01*
G01X38632Y8704D01*
G01X38608Y8736D01*
G01X38592Y8765D01*
G01X38586Y8785D01*
G01X38586Y8823D01*
G01X38434Y8823D01*
G01X38434Y8769D01*
G01X38442Y8739D01*
G01X38463Y8697D01*
G01X38494Y8648D01*
G01X38531Y8599D01*
G01X38628Y8483D01*
G01X38876Y8436D01*
G01X39148Y8550D01*
G01X39203Y8639D01*
G01X39226Y8684D01*
G01X39249Y8741D01*
G01X39268Y8803D01*
G01X39281Y8862D01*
G01X39303Y8995D01*
G01X39233Y9299D01*
G01X39001Y9509D01*
G37*
G36*
G01X47408Y10118D02*
G01X44922Y10118D01*
G01X44877Y10073D01*
G01X44832Y10027D01*
G01X44832Y8261D01*
G01X44935Y8175D01*
G01X46180Y8185D01*
G01X47424Y8195D01*
G01X47435Y9108D01*
G01X47436Y9201D01*
G01X47436Y9293D01*
G01X47437Y9381D01*
G01X47437Y9700D01*
G01X47436Y9768D01*
G01X47436Y9830D01*
G01X47435Y9887D01*
G01X47433Y9936D01*
G01X47432Y9979D01*
G01X47431Y10015D01*
G01X47429Y10042D01*
G01X47428Y10060D01*
G01X47426Y10070D01*
G01X47408Y10118D01*
G37*
G36*
G01X37602Y8481D02*
G01X37602Y9502D01*
G01X37536Y9492D01*
G01X37469Y9483D01*
G01X37458Y8981D01*
G01X37448Y8481D01*
G01X37602Y8481D01*
G37*
G36*
G01X38052Y9428D02*
G01X37973Y9513D01*
G01X37772Y9490D01*
G01X37772Y9338D01*
G01X37881Y9336D01*
G01X37989Y9334D01*
G01X38041Y9262D01*
G01X38094Y9190D01*
G01X38094Y8481D01*
G01X38283Y8481D01*
G01X38283Y9139D01*
G01X38281Y9267D01*
G01X38277Y9361D01*
G01X38270Y9424D01*
G01X38259Y9465D01*
G01X38242Y9486D01*
G01X38219Y9495D01*
G01X38188Y9497D01*
G01X38132Y9497D01*
G01X38132Y9342D01*
G01X38052Y9428D01*
G37*

%LPD*%
G36*
G01X35890Y9311D02*
G01X35728Y9391D01*
G01X35633Y9372D01*
G01X35539Y9353D01*
G01X35473Y9275D01*
G01X35447Y9240D01*
G01X35426Y9203D01*
G01X35412Y9170D01*
G01X35406Y9143D01*
G01X35406Y9090D01*
G01X35690Y9090D01*
G01X35800Y9091D01*
G01X35891Y9095D01*
G01X35952Y9100D01*
G01X35974Y9107D01*
G01X35970Y9121D01*
G01X35962Y9147D01*
G01X35948Y9180D01*
G01X35932Y9218D01*
G01X35890Y9311D01*
G37*

%LPD*%
G36*
G01X46572Y8671D02*
G01X46572Y9668D01*
G01X46542Y9655D01*
G01X46517Y9643D01*
G01X46478Y9623D01*
G01X46429Y9596D01*
G01X46370Y9563D01*
G01X46304Y9527D01*
G01X46234Y9486D01*
G01X46160Y9444D01*
G01X46086Y9401D01*
G01X46013Y9358D01*
G01X45943Y9317D01*
G01X45878Y9278D01*
G01X45821Y9244D01*
G01X45772Y9214D01*
G01X45735Y9190D01*
G01X45711Y9174D01*
G01X45703Y9166D01*
G01X45712Y9157D01*
G01X45738Y9139D01*
G01X45778Y9113D01*
G01X45830Y9079D01*
G01X45892Y9042D01*
G01X45961Y9000D01*
G01X46035Y8956D01*
G01X46112Y8910D01*
G01X46189Y8866D01*
G01X46265Y8822D01*
G01X46336Y8781D01*
G01X46401Y8745D01*
G01X46457Y8715D01*
G01X46502Y8691D01*
G01X46533Y8676D01*
G01X46549Y8671D01*
G01X46572Y8671D01*
G37*

%LPD*%
G36*
G01X36920Y9286D02*
G01X36807Y9400D01*
G01X36722Y9375D01*
G01X36684Y9359D01*
G01X36642Y9335D01*
G01X36602Y9305D01*
G01X36570Y9273D01*
G01X36504Y9196D01*
G01X36498Y9076D01*
G01X36496Y9022D01*
G01X36496Y8964D01*
G01X36498Y8908D01*
G01X36501Y8862D01*
G01X36509Y8766D01*
G01X36589Y8680D01*
G01X36668Y8595D01*
G01X36877Y8595D01*
G01X36955Y8695D01*
G01X37034Y8796D01*
G01X37034Y9172D01*
G01X36920Y9286D01*
G37*

%LPD*%
G36*
G01X40938Y9395D02*
G01X40887Y9395D01*
G01X40861Y9390D01*
G01X40827Y9378D01*
G01X40790Y9360D01*
G01X40755Y9338D01*
G01X40674Y9280D01*
G01X40630Y9147D01*
G01X40586Y9013D01*
G01X40612Y8890D01*
G01X40638Y8766D01*
G01X40716Y8680D01*
G01X40794Y8595D01*
G01X41003Y8595D01*
G01X41081Y8695D01*
G01X41160Y8796D01*
G01X41160Y9172D01*
G01X41049Y9283D01*
G01X40938Y9395D01*
G37*

%LPD*%
G36*
G01X37285Y17283D02*
G01X37034Y17283D01*
G01X36950Y17282D01*
G01X36868Y17281D01*
G01X36786Y17279D01*
G01X36706Y17277D01*
G01X36627Y17274D01*
G01X36551Y17271D01*
G01X36477Y17267D01*
G01X36406Y17263D01*
G01X36338Y17258D01*
G01X36273Y17253D01*
G01X36211Y17248D01*
G01X36154Y17242D01*
G01X36101Y17235D01*
G01X36052Y17229D01*
G01X36009Y17221D01*
G01X35970Y17214D01*
G01X35937Y17205D01*
G01X35911Y17197D01*
G01X35890Y17187D01*
G01X35842Y17160D01*
G01X35797Y17129D01*
G01X35754Y17095D01*
G01X35714Y17058D01*
G01X35676Y17019D01*
G01X35641Y16977D01*
G01X35609Y16933D01*
G01X35579Y16886D01*
G01X35552Y16838D01*
G01X35528Y16788D01*
G01X35506Y16737D01*
G01X35487Y16684D01*
G01X35471Y16630D01*
G01X35458Y16575D01*
G01X35447Y16519D01*
G01X35440Y16462D01*
G01X35435Y16404D01*
G01X35433Y16346D01*
G01X35433Y16289D01*
G01X35437Y16231D01*
G01X35443Y16173D01*
G01X35452Y16115D01*
G01X35465Y16058D01*
G01X35480Y16002D01*
G01X35499Y15947D01*
G01X35520Y15892D01*
G01X35544Y15838D01*
G01X35571Y15787D01*
G01X35602Y15736D01*
G01X35635Y15687D01*
G01X35672Y15640D01*
G01X35711Y15595D01*
G01X35736Y15569D01*
G01X35761Y15545D01*
G01X35785Y15522D01*
G01X35810Y15502D01*
G01X35835Y15484D01*
G01X35862Y15467D01*
G01X35890Y15452D01*
G01X35921Y15438D01*
G01X35955Y15425D01*
G01X35992Y15415D01*
G01X36032Y15405D01*
G01X36077Y15397D01*
G01X36126Y15389D01*
G01X36181Y15383D01*
G01X36242Y15378D01*
G01X36309Y15374D01*
G01X36382Y15371D01*
G01X36463Y15368D01*
G01X36551Y15365D01*
G01X36648Y15364D01*
G01X36753Y15363D01*
G01X36867Y15362D01*
G01X37320Y15362D01*
G01X37416Y15363D01*
G01X37510Y15365D01*
G01X37602Y15367D01*
G01X37691Y15369D01*
G01X37777Y15371D01*
G01X37861Y15374D01*
G01X37940Y15377D01*
G01X38016Y15380D01*
G01X38088Y15384D01*
G01X38155Y15388D01*
G01X38217Y15392D01*
G01X38274Y15396D01*
G01X38325Y15401D01*
G01X38370Y15405D01*
G01X38409Y15410D01*
G01X38441Y15415D01*
G01X38466Y15420D01*
G01X38484Y15425D01*
G01X38525Y15445D01*
G01X38566Y15474D01*
G01X38608Y15511D01*
G01X38648Y15555D01*
G01X38688Y15605D01*
G01X38726Y15661D01*
G01X38762Y15721D01*
G01X38797Y15786D01*
G01X38828Y15853D01*
G01X38857Y15923D01*
G01X38882Y15995D01*
G01X38904Y16067D01*
G01X38921Y16140D01*
G01X38935Y16212D01*
G01X38943Y16282D01*
G01X38945Y16350D01*
G01X38943Y16415D01*
G01X38935Y16480D01*
G01X38921Y16545D01*
G01X38903Y16609D01*
G01X38880Y16673D01*
G01X38852Y16735D01*
G01X38821Y16796D01*
G01X38786Y16854D01*
G01X38747Y16910D01*
G01X38706Y16962D01*
G01X38660Y17011D01*
G01X38613Y17057D01*
G01X38563Y17098D01*
G01X38510Y17134D01*
G01X38457Y17166D01*
G01X38401Y17191D01*
G01X38375Y17200D01*
G01X38342Y17209D01*
G01X38305Y17217D01*
G01X38262Y17225D01*
G01X38214Y17232D01*
G01X38161Y17239D01*
G01X38105Y17245D01*
G01X38044Y17251D01*
G01X37979Y17256D01*
G01X37911Y17261D01*
G01X37840Y17265D01*
G01X37766Y17269D01*
G01X37691Y17273D01*
G01X37612Y17276D01*
G01X37533Y17278D01*
G01X37451Y17280D01*
G01X37368Y17281D01*
G01X37285Y17283D01*
G37*

%LPC*%
G36*
G01X37865Y16772D02*
G01X37699Y16772D01*
G01X37605Y16771D01*
G01X37502Y16770D01*
G01X37389Y16768D01*
G01X37267Y16765D01*
G01X37135Y16762D01*
G01X35946Y16733D01*
G01X35915Y16352D01*
G01X35909Y16275D01*
G01X35906Y16207D01*
G01X35907Y16149D01*
G01X35912Y16099D01*
G01X35921Y16056D01*
G01X35935Y16020D01*
G01X35954Y15988D01*
G01X35980Y15960D01*
G01X36012Y15935D01*
G01X36050Y15913D01*
G01X36096Y15891D01*
G01X36150Y15869D01*
G01X36182Y15859D01*
G01X36221Y15849D01*
G01X36268Y15839D01*
G01X36322Y15830D01*
G01X36381Y15821D01*
G01X36446Y15813D01*
G01X36516Y15805D01*
G01X36590Y15798D01*
G01X36668Y15791D01*
G01X36750Y15786D01*
G01X36834Y15781D01*
G01X36920Y15776D01*
G01X37008Y15773D01*
G01X37097Y15770D01*
G01X37275Y15768D01*
G01X37404Y15768D01*
G01X37520Y15770D01*
G01X37626Y15772D01*
G01X37721Y15776D01*
G01X37806Y15781D01*
G01X37883Y15787D01*
G01X37951Y15796D01*
G01X38012Y15805D01*
G01X38066Y15818D01*
G01X38115Y15832D01*
G01X38159Y15849D01*
G01X38199Y15867D01*
G01X38236Y15889D01*
G01X38270Y15914D01*
G01X38303Y15941D01*
G01X38335Y15972D01*
G01X38389Y16027D01*
G01X38433Y16078D01*
G01X38469Y16126D01*
G01X38497Y16172D01*
G01X38516Y16217D01*
G01X38527Y16262D01*
G01X38530Y16308D01*
G01X38526Y16356D01*
G01X38513Y16407D01*
G01X38493Y16463D01*
G01X38466Y16524D01*
G01X38432Y16591D01*
G01X38420Y16613D01*
G01X38406Y16633D01*
G01X38393Y16652D01*
G01X38378Y16669D01*
G01X38361Y16685D01*
G01X38342Y16698D01*
G01X38320Y16711D01*
G01X38295Y16722D01*
G01X38267Y16733D01*
G01X38235Y16741D01*
G01X38199Y16749D01*
G01X38157Y16755D01*
G01X38111Y16760D01*
G01X38059Y16765D01*
G01X38000Y16768D01*
G01X37936Y16770D01*
G01X37865Y16772D01*
G37*

%LPD*%
G36*
G01X42681Y17237D02*
G01X42651Y17242D01*
G01X42623Y17239D01*
G01X42595Y17230D01*
G01X42569Y17213D01*
G01X42545Y17189D01*
G01X42522Y17159D01*
G01X42501Y17122D01*
G01X42481Y17078D01*
G01X42464Y17029D01*
G01X42448Y16973D01*
G01X42434Y16911D01*
G01X42423Y16844D01*
G01X42414Y16771D01*
G01X42408Y16693D01*
G01X42404Y16610D01*
G01X42402Y16521D01*
G01X42402Y16458D01*
G01X42401Y16399D01*
G01X42399Y16343D01*
G01X42395Y16291D01*
G01X42391Y16241D01*
G01X42384Y16196D01*
G01X42376Y16152D01*
G01X42367Y16112D01*
G01X42355Y16075D01*
G01X42341Y16041D01*
G01X42325Y16009D01*
G01X42305Y15980D01*
G01X42283Y15953D01*
G01X42259Y15928D01*
G01X42231Y15906D01*
G01X42200Y15886D01*
G01X42165Y15868D01*
G01X42127Y15852D01*
G01X42085Y15837D01*
G01X42039Y15825D01*
G01X41988Y15814D01*
G01X41933Y15804D01*
G01X41874Y15796D01*
G01X41810Y15789D01*
G01X41741Y15783D01*
G01X41667Y15778D01*
G01X41588Y15775D01*
G01X41503Y15772D01*
G01X41413Y15770D01*
G01X41317Y15769D01*
G01X41215Y15768D01*
G01X41002Y15768D01*
G01X40903Y15769D01*
G01X40810Y15771D01*
G01X40722Y15773D01*
G01X40640Y15776D01*
G01X40562Y15781D01*
G01X40490Y15787D01*
G01X40422Y15794D01*
G01X40359Y15802D01*
G01X40300Y15812D01*
G01X40245Y15823D01*
G01X40195Y15836D01*
G01X40148Y15852D01*
G01X40106Y15868D01*
G01X40066Y15888D01*
G01X40030Y15909D01*
G01X39997Y15933D01*
G01X39967Y15959D01*
G01X39939Y15988D01*
G01X39915Y16019D01*
G01X39893Y16053D01*
G01X39873Y16090D01*
G01X39856Y16131D01*
G01X39839Y16174D01*
G01X39826Y16220D01*
G01X39813Y16271D01*
G01X39802Y16324D01*
G01X39792Y16381D01*
G01X39783Y16442D01*
G01X39775Y16506D01*
G01X39768Y16575D01*
G01X39761Y16647D01*
G01X39751Y16751D01*
G01X39740Y16843D01*
G01X39728Y16925D01*
G01X39715Y16996D01*
G01X39701Y17057D01*
G01X39685Y17108D01*
G01X39669Y17151D01*
G01X39650Y17184D01*
G01X39630Y17210D01*
G01X39607Y17227D01*
G01X39582Y17238D01*
G01X39555Y17241D01*
G01X39528Y17238D01*
G01X39504Y17228D01*
G01X39481Y17211D01*
G01X39462Y17185D01*
G01X39445Y17151D01*
G01X39429Y17107D01*
G01X39416Y17054D01*
G01X39405Y16990D01*
G01X39395Y16915D01*
G01X39386Y16829D01*
G01X39379Y16730D01*
G01X39373Y16619D01*
G01X39369Y16522D01*
G01X39366Y16433D01*
G01X39365Y16354D01*
G01X39366Y16281D01*
G01X39369Y16215D01*
G01X39375Y16155D01*
G01X39383Y16101D01*
G01X39394Y16049D01*
G01X39408Y16002D01*
G01X39425Y15956D01*
G01X39446Y15912D01*
G01X39471Y15867D01*
G01X39499Y15823D01*
G01X39532Y15778D01*
G01X39569Y15730D01*
G01X39611Y15680D01*
G01X39879Y15362D01*
G01X41398Y15362D01*
G01X41520Y15363D01*
G01X41632Y15363D01*
G01X41733Y15365D01*
G01X41826Y15367D01*
G01X41911Y15370D01*
G01X41987Y15374D01*
G01X42056Y15378D01*
G01X42119Y15383D01*
G01X42175Y15390D01*
G01X42226Y15397D01*
G01X42272Y15406D01*
G01X42313Y15416D01*
G01X42350Y15428D01*
G01X42384Y15441D01*
G01X42416Y15456D01*
G01X42445Y15473D01*
G01X42472Y15491D01*
G01X42499Y15512D01*
G01X42525Y15534D01*
G01X42551Y15559D01*
G01X42577Y15586D01*
G01X42605Y15615D01*
G01X42635Y15650D01*
G01X42663Y15690D01*
G01X42691Y15733D01*
G01X42717Y15782D01*
G01X42742Y15833D01*
G01X42764Y15888D01*
G01X42786Y15946D01*
G01X42806Y16006D01*
G01X42825Y16068D01*
G01X42842Y16132D01*
G01X42857Y16197D01*
G01X42871Y16263D01*
G01X42882Y16330D01*
G01X42892Y16396D01*
G01X42900Y16463D01*
G01X42906Y16529D01*
G01X42910Y16594D01*
G01X42912Y16658D01*
G01X42912Y16720D01*
G01X42910Y16780D01*
G01X42905Y16838D01*
G01X42899Y16893D01*
G01X42889Y16944D01*
G01X42878Y16992D01*
G01X42864Y17036D01*
G01X42848Y17076D01*
G01X42829Y17111D01*
G01X42808Y17141D01*
G01X42775Y17177D01*
G01X42743Y17205D01*
G01X42711Y17225D01*
G01X42681Y17237D01*
G37*

%LPD*%
G36*
G01X45430Y17292D02*
G01X43912Y17292D01*
G01X43614Y16995D01*
G01X43574Y16952D01*
G01X43536Y16907D01*
G01X43501Y16861D01*
G01X43468Y16813D01*
G01X43439Y16765D01*
G01X43412Y16715D01*
G01X43388Y16664D01*
G01X43367Y16613D01*
G01X43350Y16560D01*
G01X43335Y16507D01*
G01X43323Y16454D01*
G01X43314Y16401D01*
G01X43308Y16347D01*
G01X43304Y16293D01*
G01X43303Y16240D01*
G01X43306Y16186D01*
G01X43312Y16133D01*
G01X43320Y16081D01*
G01X43331Y16029D01*
G01X43346Y15978D01*
G01X43363Y15927D01*
G01X43383Y15878D01*
G01X43407Y15830D01*
G01X43432Y15783D01*
G01X43461Y15738D01*
G01X43494Y15694D01*
G01X43529Y15651D01*
G01X43567Y15611D01*
G01X43592Y15586D01*
G01X43616Y15563D01*
G01X43640Y15541D01*
G01X43664Y15521D01*
G01X43687Y15503D01*
G01X43712Y15486D01*
G01X43737Y15470D01*
G01X43764Y15456D01*
G01X43793Y15443D01*
G01X43825Y15432D01*
G01X43859Y15421D01*
G01X43896Y15412D01*
G01X43937Y15403D01*
G01X43983Y15396D01*
G01X44032Y15389D01*
G01X44087Y15384D01*
G01X44147Y15379D01*
G01X44213Y15375D01*
G01X44285Y15372D01*
G01X44364Y15369D01*
G01X44450Y15367D01*
G01X44543Y15365D01*
G01X44644Y15364D01*
G01X44754Y15363D01*
G01X44872Y15362D01*
G01X45764Y15362D01*
G01X45866Y15363D01*
G01X45962Y15364D01*
G01X46052Y15366D01*
G01X46136Y15368D01*
G01X46213Y15371D01*
G01X46285Y15374D01*
G01X46352Y15379D01*
G01X46413Y15384D01*
G01X46470Y15390D01*
G01X46522Y15397D01*
G01X46569Y15406D01*
G01X46612Y15416D01*
G01X46650Y15427D01*
G01X46685Y15440D01*
G01X46716Y15454D01*
G01X46743Y15470D01*
G01X46767Y15487D01*
G01X46788Y15506D01*
G01X46806Y15527D01*
G01X46821Y15550D01*
G01X46835Y15575D01*
G01X46845Y15602D01*
G01X46854Y15632D01*
G01X46861Y15663D01*
G01X46866Y15698D01*
G01X46870Y15734D01*
G01X46873Y15773D01*
G01X46874Y15815D01*
G01X46875Y15859D01*
G01X46876Y15907D01*
G01X46876Y16010D01*
G01X46874Y16078D01*
G01X46867Y16146D01*
G01X46856Y16212D01*
G01X46842Y16274D01*
G01X46825Y16331D01*
G01X46806Y16381D01*
G01X46785Y16422D01*
G01X46762Y16451D01*
G01X46725Y16484D01*
G01X46688Y16508D01*
G01X46652Y16525D01*
G01X46617Y16533D01*
G01X46583Y16533D01*
G01X46550Y16527D01*
G01X46519Y16513D01*
G01X46490Y16492D01*
G01X46464Y16464D01*
G01X46440Y16430D01*
G01X46419Y16390D01*
G01X46401Y16343D01*
G01X46387Y16292D01*
G01X46376Y16234D01*
G01X46370Y16172D01*
G01X46368Y16104D01*
G01X46368Y15751D01*
G01X45143Y15785D01*
G01X45010Y15789D01*
G01X44884Y15793D01*
G01X44768Y15797D01*
G01X44659Y15802D01*
G01X44558Y15807D01*
G01X44464Y15814D01*
G01X44378Y15821D01*
G01X44299Y15828D01*
G01X44226Y15837D01*
G01X44159Y15847D01*
G01X44099Y15857D01*
G01X44045Y15869D01*
G01X43996Y15883D01*
G01X43952Y15898D01*
G01X43913Y15915D01*
G01X43879Y15933D01*
G01X43849Y15954D01*
G01X43823Y15976D01*
G01X43801Y16000D01*
G01X43782Y16027D01*
G01X43767Y16056D01*
G01X43755Y16087D01*
G01X43745Y16121D01*
G01X43737Y16157D01*
G01X43732Y16197D01*
G01X43729Y16239D01*
G01X43727Y16284D01*
G01X43726Y16332D01*
G01X43726Y16368D01*
G01X43728Y16403D01*
G01X43731Y16436D01*
G01X43735Y16466D01*
G01X43742Y16495D01*
G01X43750Y16522D01*
G01X43761Y16548D01*
G01X43774Y16571D01*
G01X43790Y16594D01*
G01X43809Y16614D01*
G01X43830Y16633D01*
G01X43855Y16651D01*
G01X43884Y16667D01*
G01X43915Y16682D01*
G01X43951Y16696D01*
G01X43990Y16708D01*
G01X44034Y16719D01*
G01X44082Y16729D01*
G01X44134Y16739D01*
G01X44191Y16747D01*
G01X44253Y16754D01*
G01X44320Y16760D01*
G01X44393Y16765D01*
G01X44471Y16770D01*
G01X44555Y16774D01*
G01X44644Y16777D01*
G01X44740Y16779D01*
G01X44841Y16781D01*
G01X44949Y16782D01*
G01X45064Y16783D01*
G01X45186Y16784D01*
G01X45454Y16784D01*
G01X45585Y16785D01*
G01X45708Y16786D01*
G01X45823Y16788D01*
G01X45929Y16790D01*
G01X46028Y16793D01*
G01X46120Y16797D01*
G01X46205Y16801D01*
G01X46282Y16807D01*
G01X46353Y16813D01*
G01X46417Y16820D01*
G01X46476Y16828D01*
G01X46528Y16837D01*
G01X46574Y16848D01*
G01X46615Y16860D01*
G01X46650Y16872D01*
G01X46680Y16886D01*
G01X46705Y16902D01*
G01X46725Y16919D01*
G01X46741Y16937D01*
G01X46753Y16957D01*
G01X46760Y16978D01*
G01X46764Y17002D01*
G01X46765Y17027D01*
G01X46762Y17054D01*
G01X46756Y17082D01*
G01X46747Y17112D01*
G01X46736Y17145D01*
G01X46728Y17159D01*
G01X46719Y17172D01*
G01X46706Y17185D01*
G01X46690Y17197D01*
G01X46671Y17207D01*
G01X46648Y17218D01*
G01X46621Y17227D01*
G01X46590Y17235D01*
G01X46554Y17244D01*
G01X46514Y17251D01*
G01X46468Y17257D01*
G01X46416Y17263D01*
G01X46360Y17268D01*
G01X46298Y17273D01*
G01X46229Y17277D01*
G01X46154Y17280D01*
G01X46073Y17283D01*
G01X45985Y17286D01*
G01X45889Y17288D01*
G01X45786Y17289D01*
G01X45676Y17290D01*
G01X45557Y17291D01*
G01X45430Y17292D01*
G37*

%LPD*%
G36*
G01X42990Y15143D02*
G01X42964Y15143D01*
G01X42936Y15139D01*
G01X42909Y15132D01*
G01X42884Y15123D01*
G01X42863Y15109D01*
G01X42844Y15091D01*
G01X42827Y15067D01*
G01X42813Y15038D01*
G01X42800Y15002D01*
G01X42790Y14958D01*
G01X42781Y14906D01*
G01X42774Y14844D01*
G01X42769Y14774D01*
G01X42764Y14692D01*
G01X42761Y14599D01*
G01X42759Y14494D01*
G01X42758Y14376D01*
G01X42758Y14113D01*
G01X42759Y13995D01*
G01X42761Y13890D01*
G01X42764Y13797D01*
G01X42769Y13715D01*
G01X42774Y13644D01*
G01X42781Y13583D01*
G01X42790Y13531D01*
G01X42800Y13487D01*
G01X42813Y13451D01*
G01X42827Y13421D01*
G01X42844Y13397D01*
G01X42863Y13380D01*
G01X42884Y13366D01*
G01X42909Y13356D01*
G01X42936Y13349D01*
G01X42964Y13345D01*
G01X42990Y13345D01*
G01X43011Y13349D01*
G01X43031Y13359D01*
G01X43048Y13376D01*
G01X43062Y13400D01*
G01X43074Y13433D01*
G01X43085Y13474D01*
G01X43093Y13526D01*
G01X43100Y13588D01*
G01X43105Y13663D01*
G01X43108Y13750D01*
G01X43111Y13851D01*
G01X43113Y13966D01*
G01X43114Y14097D01*
G01X43114Y14392D01*
G01X43113Y14522D01*
G01X43111Y14638D01*
G01X43108Y14739D01*
G01X43105Y14826D01*
G01X43100Y14901D01*
G01X43093Y14963D01*
G01X43085Y15014D01*
G01X43074Y15056D01*
G01X43062Y15089D01*
G01X43048Y15113D01*
G01X43031Y15129D01*
G01X43011Y15139D01*
G01X42990Y15143D01*
G37*

%LPD*%
G36*
G01X43790Y15143D02*
G01X43748Y15151D01*
G01X43710Y15147D01*
G01X43674Y15133D01*
G01X43638Y15108D01*
G01X43600Y15073D01*
G01X43566Y15034D01*
G01X43546Y14997D01*
G01X43541Y14960D01*
G01X43550Y14920D01*
G01X43574Y14876D01*
G01X43615Y14826D01*
G01X43673Y14768D01*
G01X43749Y14700D01*
G01X43808Y14649D01*
G01X43871Y14597D01*
G01X43935Y14546D01*
G01X43998Y14497D01*
G01X44059Y14451D01*
G01X44115Y14410D01*
G01X44165Y14376D01*
G01X44206Y14349D01*
G01X44260Y14314D01*
G01X44297Y14284D01*
G01X44317Y14257D01*
G01X44319Y14229D01*
G01X44303Y14199D01*
G01X44267Y14163D01*
G01X44212Y14118D01*
G01X44136Y14064D01*
G01X44029Y13988D01*
G01X43934Y13919D01*
G01X43850Y13858D01*
G01X43777Y13802D01*
G01X43716Y13753D01*
G01X43664Y13708D01*
G01X43622Y13668D01*
G01X43589Y13632D01*
G01X43566Y13599D01*
G01X43550Y13569D01*
G01X43542Y13541D01*
G01X43541Y13515D01*
G01X43547Y13490D01*
G01X43559Y13465D01*
G01X43578Y13440D01*
G01X43601Y13414D01*
G01X43641Y13379D01*
G01X43681Y13354D01*
G01X43723Y13343D01*
G01X43770Y13343D01*
G01X43825Y13355D01*
G01X43889Y13381D01*
G01X43966Y13420D01*
G01X44059Y13473D01*
G01X44133Y13517D01*
G01X44204Y13558D01*
G01X44272Y13597D01*
G01X44337Y13633D01*
G01X44399Y13667D01*
G01X44459Y13699D01*
G01X44516Y13729D01*
G01X44572Y13756D01*
G01X44626Y13782D01*
G01X44678Y13806D01*
G01X44729Y13828D01*
G01X44780Y13849D01*
G01X44829Y13868D01*
G01X44879Y13885D01*
G01X44928Y13901D01*
G01X44977Y13916D01*
G01X45026Y13929D01*
G01X45076Y13942D01*
G01X45127Y13953D01*
G01X45179Y13963D01*
G01X45232Y13972D01*
G01X45287Y13980D01*
G01X45344Y13988D01*
G01X45402Y13995D01*
G01X45463Y14002D01*
G01X45527Y14007D01*
G01X45593Y14013D01*
G01X45663Y14018D01*
G01X46352Y14068D01*
G01X46385Y13725D01*
G01X46396Y13644D01*
G01X46411Y13573D01*
G01X46430Y13511D01*
G01X46455Y13459D01*
G01X46483Y13417D01*
G01X46516Y13385D01*
G01X46554Y13362D01*
G01X46596Y13349D01*
G01X46624Y13345D01*
G01X46650Y13345D01*
G01X46671Y13349D01*
G01X46691Y13359D01*
G01X46708Y13376D01*
G01X46722Y13400D01*
G01X46734Y13433D01*
G01X46745Y13474D01*
G01X46753Y13526D01*
G01X46760Y13589D01*
G01X46765Y13663D01*
G01X46769Y13750D01*
G01X46772Y13851D01*
G01X46773Y13966D01*
G01X46774Y14097D01*
G01X46774Y14392D01*
G01X46773Y14522D01*
G01X46772Y14638D01*
G01X46769Y14739D01*
G01X46765Y14826D01*
G01X46760Y14900D01*
G01X46753Y14963D01*
G01X46745Y15014D01*
G01X46734Y15056D01*
G01X46722Y15089D01*
G01X46708Y15113D01*
G01X46691Y15129D01*
G01X46671Y15139D01*
G01X46650Y15144D01*
G01X46624Y15144D01*
G01X46596Y15140D01*
G01X46555Y15127D01*
G01X46517Y15104D01*
G01X46484Y15072D01*
G01X46455Y15031D01*
G01X46431Y14981D01*
G01X46411Y14922D01*
G01X46397Y14854D01*
G01X46387Y14777D01*
G01X46355Y14448D01*
G01X45726Y14451D01*
G01X45669Y14452D01*
G01X45613Y14453D01*
G01X45557Y14456D01*
G01X45503Y14460D01*
G01X45448Y14464D01*
G01X45394Y14470D01*
G01X45288Y14486D01*
G01X45235Y14495D01*
G01X45182Y14505D01*
G01X45129Y14516D01*
G01X45076Y14529D01*
G01X45024Y14543D01*
G01X44971Y14558D01*
G01X44919Y14574D01*
G01X44866Y14592D01*
G01X44813Y14611D01*
G01X44759Y14630D01*
G01X44706Y14652D01*
G01X44598Y14698D01*
G01X44543Y14724D01*
G01X44488Y14751D01*
G01X44431Y14779D01*
G01X44375Y14809D01*
G01X44317Y14840D01*
G01X44260Y14872D01*
G01X44201Y14907D01*
G01X44141Y14942D01*
G01X44080Y14979D01*
G01X44018Y15018D01*
G01X43955Y15058D01*
G01X43891Y15097D01*
G01X43836Y15126D01*
G01X43790Y15143D01*
G37*

%LPD*%
G36*
G01X42093Y15154D02*
G01X42062Y15156D01*
G01X42030Y15154D01*
G01X41994Y15151D01*
G01X41957Y15143D01*
G01X41917Y15134D01*
G01X41873Y15122D01*
G01X41828Y15106D01*
G01X41779Y15088D01*
G01X41727Y15067D01*
G01X41672Y15042D01*
G01X41614Y15015D01*
G01X41552Y14984D01*
G01X41487Y14950D01*
G01X41419Y14914D01*
G01X41347Y14874D01*
G01X41270Y14830D01*
G01X41191Y14783D01*
G01X41106Y14734D01*
G01X41018Y14680D01*
G01X40926Y14623D01*
G01X40829Y14562D01*
G01X40728Y14498D01*
G01X40644Y14444D01*
G01X40560Y14392D01*
G01X40478Y14340D01*
G01X40398Y14290D01*
G01X40320Y14242D01*
G01X40245Y14196D01*
G01X40173Y14151D01*
G01X40104Y14109D01*
G01X40039Y14069D01*
G01X39976Y14032D01*
G01X39918Y13997D01*
G01X39864Y13966D01*
G01X39816Y13937D01*
G01X39771Y13912D01*
G01X39732Y13890D01*
G01X39698Y13872D01*
G01X39670Y13857D01*
G01X39648Y13847D01*
G01X39633Y13840D01*
G01X39624Y13838D01*
G01X39614Y13844D01*
G01X39606Y13860D01*
G01X39597Y13886D01*
G01X39589Y13922D01*
G01X39582Y13966D01*
G01X39576Y14018D01*
G01X39570Y14077D01*
G01X39565Y14142D01*
G01X39561Y14213D01*
G01X39558Y14289D01*
G01X39556Y14368D01*
G01X39555Y14451D01*
G01X39555Y14561D01*
G01X39552Y14660D01*
G01X39548Y14747D01*
G01X39541Y14823D01*
G01X39532Y14889D01*
G01X39521Y14946D01*
G01X39507Y14994D01*
G01X39490Y15034D01*
G01X39471Y15066D01*
G01X39448Y15092D01*
G01X39422Y15111D01*
G01X39393Y15126D01*
G01X39358Y15137D01*
G01X39325Y15143D01*
G01X39294Y15145D01*
G01X39265Y15140D01*
G01X39238Y15131D01*
G01X39213Y15117D01*
G01X39190Y15096D01*
G01X39168Y15071D01*
G01X39149Y15040D01*
G01X39131Y15003D01*
G01X39116Y14961D01*
G01X39101Y14913D01*
G01X39089Y14859D01*
G01X39078Y14799D01*
G01X39069Y14734D01*
G01X39062Y14662D01*
G01X39057Y14584D01*
G01X39053Y14500D01*
G01X39050Y14410D01*
G01X39049Y14314D01*
G01X39049Y14212D01*
G01X39052Y14117D01*
G01X39057Y14027D01*
G01X39064Y13944D01*
G01X39072Y13866D01*
G01X39083Y13794D01*
G01X39096Y13727D01*
G01X39111Y13666D01*
G01X39129Y13611D01*
G01X39149Y13561D01*
G01X39171Y13515D01*
G01X39196Y13476D01*
G01X39223Y13441D01*
G01X39252Y13411D01*
G01X39284Y13386D01*
G01X39319Y13366D01*
G01X39356Y13350D01*
G01X39395Y13340D01*
G01X39438Y13333D01*
G01X39483Y13331D01*
G01X39501Y13333D01*
G01X39523Y13338D01*
G01X39549Y13345D01*
G01X39580Y13355D01*
G01X39615Y13368D01*
G01X39653Y13384D01*
G01X39695Y13402D01*
G01X39740Y13422D01*
G01X39788Y13445D01*
G01X39839Y13470D01*
G01X39893Y13497D01*
G01X39950Y13526D01*
G01X40009Y13556D01*
G01X40070Y13589D01*
G01X40133Y13624D01*
G01X40198Y13659D01*
G01X40264Y13697D01*
G01X40332Y13735D01*
G01X40401Y13775D01*
G01X40541Y13859D01*
G01X40613Y13902D01*
G01X40685Y13947D01*
G01X40757Y13991D01*
G01X40843Y14045D01*
G01X40927Y14098D01*
G01X41009Y14149D01*
G01X41089Y14199D01*
G01X41167Y14247D01*
G01X41242Y14294D01*
G01X41314Y14338D01*
G01X41383Y14380D01*
G01X41448Y14420D01*
G01X41509Y14457D01*
G01X41566Y14492D01*
G01X41618Y14523D01*
G01X41666Y14552D01*
G01X41709Y14577D01*
G01X41747Y14599D01*
G01X41779Y14617D01*
G01X41805Y14631D01*
G01X41825Y14642D01*
G01X41838Y14649D01*
G01X41845Y14651D01*
G01X41851Y14645D01*
G01X41856Y14628D01*
G01X41862Y14600D01*
G01X41869Y14564D01*
G01X41875Y14518D01*
G01X41882Y14464D01*
G01X41888Y14403D01*
G01X41894Y14336D01*
G01X41900Y14263D01*
G01X41905Y14185D01*
G01X41910Y14103D01*
G01X41915Y14017D01*
G01X41921Y13897D01*
G01X41928Y13793D01*
G01X41937Y13702D01*
G01X41948Y13624D01*
G01X41960Y13558D01*
G01X41974Y13502D01*
G01X41991Y13457D01*
G01X42011Y13421D01*
G01X42033Y13393D01*
G01X42059Y13373D01*
G01X42089Y13358D01*
G01X42123Y13349D01*
G01X42151Y13345D01*
G01X42176Y13345D01*
G01X42198Y13349D01*
G01X42217Y13358D01*
G01X42234Y13373D01*
G01X42248Y13395D01*
G01X42261Y13425D01*
G01X42271Y13464D01*
G01X42279Y13511D01*
G01X42286Y13568D01*
G01X42291Y13637D01*
G01X42295Y13717D01*
G01X42298Y13809D01*
G01X42300Y13915D01*
G01X42300Y14035D01*
G01X42301Y14169D01*
G01X42300Y14257D01*
G01X42299Y14342D01*
G01X42298Y14426D01*
G01X42295Y14506D01*
G01X42293Y14584D01*
G01X42289Y14657D01*
G01X42285Y14727D01*
G01X42281Y14792D01*
G01X42276Y14852D01*
G01X42271Y14907D01*
G01X42265Y14955D01*
G01X42259Y14997D01*
G01X42253Y15032D01*
G01X42246Y15060D01*
G01X42240Y15079D01*
G01X42233Y15091D01*
G01X42214Y15108D01*
G01X42193Y15122D01*
G01X42171Y15134D01*
G01X42147Y15143D01*
G01X42121Y15150D01*
G01X42093Y15154D01*
G37*

%LPD*%
G36*
G01X37171Y15159D02*
G01X37040Y15159D01*
G01X36850Y15157D01*
G01X36757Y15156D01*
G01X36665Y15154D01*
G01X36576Y15151D01*
G01X36488Y15148D01*
G01X36403Y15143D01*
G01X36321Y15139D01*
G01X36242Y15134D01*
G01X36167Y15129D01*
G01X36095Y15123D01*
G01X36029Y15117D01*
G01X35967Y15111D01*
G01X35910Y15104D01*
G01X35858Y15097D01*
G01X35812Y15090D01*
G01X35772Y15082D01*
G01X35739Y15074D01*
G01X35713Y15066D01*
G01X35694Y15058D01*
G01X35650Y15031D01*
G01X35609Y14998D01*
G01X35571Y14960D01*
G01X35535Y14917D01*
G01X35501Y14869D01*
G01X35471Y14816D01*
G01X35443Y14760D01*
G01X35417Y14702D01*
G01X35395Y14639D01*
G01X35377Y14575D01*
G01X35361Y14508D01*
G01X35349Y14439D01*
G01X35340Y14370D01*
G01X35335Y14300D01*
G01X35334Y14230D01*
G01X35336Y14159D01*
G01X35343Y14089D01*
G01X35353Y14021D01*
G01X35368Y13953D01*
G01X35387Y13888D01*
G01X35415Y13815D01*
G01X35448Y13741D01*
G01X35485Y13672D01*
G01X35526Y13607D01*
G01X35568Y13548D01*
G01X35611Y13498D01*
G01X35653Y13458D01*
G01X35694Y13431D01*
G01X35709Y13424D01*
G01X35730Y13417D01*
G01X35757Y13411D01*
G01X35788Y13404D01*
G01X35823Y13398D01*
G01X35864Y13392D01*
G01X35908Y13386D01*
G01X35957Y13380D01*
G01X36009Y13375D01*
G01X36065Y13370D01*
G01X36125Y13364D01*
G01X36187Y13359D01*
G01X36253Y13355D01*
G01X36322Y13351D01*
G01X36393Y13347D01*
G01X36466Y13344D01*
G01X36541Y13341D01*
G01X36619Y13338D01*
G01X36697Y13336D01*
G01X36778Y13333D01*
G01X36859Y13332D01*
G01X36942Y13331D01*
G01X37026Y13330D01*
G01X38338Y13330D01*
G01X38545Y13660D01*
G01X38575Y13711D01*
G01X38602Y13763D01*
G01X38626Y13816D01*
G01X38647Y13869D01*
G01X38664Y13924D01*
G01X38679Y13979D01*
G01X38690Y14034D01*
G01X38698Y14089D01*
G01X38704Y14145D01*
G01X38706Y14201D01*
G01X38705Y14256D01*
G01X38701Y14311D01*
G01X38694Y14366D01*
G01X38685Y14421D01*
G01X38672Y14475D01*
G01X38656Y14529D01*
G01X38637Y14582D01*
G01X38615Y14633D01*
G01X38591Y14684D01*
G01X38563Y14734D01*
G01X38532Y14782D01*
G01X38499Y14830D01*
G01X38463Y14875D01*
G01X38424Y14919D01*
G01X38398Y14946D01*
G01X38373Y14971D01*
G01X38348Y14994D01*
G01X38323Y15015D01*
G01X38298Y15034D01*
G01X38271Y15051D01*
G01X38243Y15067D01*
G01X38212Y15081D01*
G01X38179Y15094D01*
G01X38143Y15105D01*
G01X38104Y15115D01*
G01X38060Y15123D01*
G01X38011Y15130D01*
G01X37958Y15137D01*
G01X37899Y15142D01*
G01X37834Y15147D01*
G01X37763Y15150D01*
G01X37684Y15153D01*
G01X37599Y15155D01*
G01X37505Y15157D01*
G01X37403Y15158D01*
G01X37291Y15158D01*
G01X37171Y15159D01*
G37*

%LPC*%
G36*
G01X37273Y14752D02*
G01X36750Y14752D01*
G01X36637Y14751D01*
G01X36535Y14749D01*
G01X36444Y14747D01*
G01X36363Y14743D01*
G01X36291Y14739D01*
G01X36227Y14733D01*
G01X36171Y14725D01*
G01X36121Y14716D01*
G01X36078Y14706D01*
G01X36040Y14692D01*
G01X36007Y14678D01*
G01X35977Y14660D01*
G01X35951Y14641D01*
G01X35926Y14618D01*
G01X35903Y14593D01*
G01X35881Y14564D01*
G01X35858Y14533D01*
G01X35835Y14498D01*
G01X35785Y14419D01*
G01X35748Y14353D01*
G01X35727Y14296D01*
G01X35720Y14244D01*
G01X35727Y14193D01*
G01X35748Y14136D01*
G01X35785Y14070D01*
G01X35835Y13990D01*
G01X35858Y13956D01*
G01X35881Y13924D01*
G01X35903Y13896D01*
G01X35926Y13871D01*
G01X35950Y13849D01*
G01X35977Y13829D01*
G01X36006Y13812D01*
G01X36039Y13796D01*
G01X36076Y13784D01*
G01X36119Y13773D01*
G01X36167Y13764D01*
G01X36222Y13756D01*
G01X36284Y13751D01*
G01X36355Y13746D01*
G01X36434Y13742D01*
G01X36523Y13740D01*
G01X36623Y13739D01*
G01X36733Y13738D01*
G01X37092Y13738D01*
G01X37192Y13740D01*
G01X37289Y13742D01*
G01X37383Y13744D01*
G01X37474Y13748D01*
G01X37562Y13752D01*
G01X37644Y13756D01*
G01X37721Y13761D01*
G01X37793Y13766D01*
G01X37858Y13772D01*
G01X37917Y13778D01*
G01X37968Y13785D01*
G01X38012Y13792D01*
G01X38047Y13799D01*
G01X38073Y13806D01*
G01X38089Y13814D01*
G01X38138Y13854D01*
G01X38180Y13899D01*
G01X38215Y13950D01*
G01X38242Y14006D01*
G01X38262Y14064D01*
G01X38274Y14126D01*
G01X38279Y14191D01*
G01X38276Y14256D01*
G01X38265Y14322D01*
G01X38246Y14387D01*
G01X38218Y14451D01*
G01X38183Y14513D01*
G01X38161Y14545D01*
G01X38140Y14574D01*
G01X38118Y14600D01*
G01X38096Y14624D01*
G01X38072Y14645D01*
G01X38045Y14664D01*
G01X38015Y14680D01*
G01X37982Y14694D01*
G01X37943Y14707D01*
G01X37900Y14717D01*
G01X37850Y14725D01*
G01X37794Y14733D01*
G01X37730Y14739D01*
G01X37658Y14743D01*
G01X37577Y14746D01*
G01X37486Y14749D01*
G01X37386Y14751D01*
G01X37273Y14752D01*
G37*

%LPD*%
G54D30*
G01X57339Y30854D02*
G01X57339Y29899D01*
G01X57658Y30854D02*
G01X57021Y30854D01*
G01X56721Y30535D02*
G01X56721Y29899D01*
G01X56721Y30263D02*
G01X56676Y30399D01*
G01X56585Y30490D01*
G01X56494Y30535D01*
G01X56358Y30535D01*
G01X56058Y30854D02*
G01X56012Y30808D01*
G01X55967Y30854D01*
G01X56012Y30899D01*
G01X56058Y30854D01*
G01X56012Y30535D02*
G01X56012Y29899D01*
G01X55667Y30535D02*
G01X55667Y29899D01*
G01X55667Y30354D02*
G01X55530Y30490D01*
G01X55439Y30535D01*
G01X55303Y30535D01*
G01X55212Y30490D01*
G01X55167Y30354D01*
G01X55167Y29899D01*
G01X55167Y30354D02*
G01X55030Y30490D01*
G01X54939Y30535D01*
G01X54803Y30535D01*
G01X54712Y30490D01*
G01X54667Y30354D01*
G01X54667Y29899D01*
G01X54367Y30535D02*
G01X54367Y29899D01*
G01X54367Y30354D02*
G01X54230Y30490D01*
G01X54139Y30535D01*
G01X54003Y30535D01*
G01X53912Y30490D01*
G01X53867Y30354D01*
G01X53867Y29899D01*
G01X53867Y30354D02*
G01X53730Y30490D01*
G01X53639Y30535D01*
G01X53503Y30535D01*
G01X53412Y30490D01*
G01X53367Y30354D01*
G01X53367Y29899D01*
G01X53067Y30263D02*
G01X52521Y30263D01*
G01X52521Y30354D01*
G01X52567Y30444D01*
G01X52612Y30490D01*
G01X52703Y30535D01*
G01X52839Y30535D01*
G01X52930Y30490D01*
G01X53021Y30399D01*
G01X53067Y30263D01*
G01X53067Y30172D01*
G01X53021Y30035D01*
G01X52930Y29944D01*
G01X52839Y29899D01*
G01X52703Y29899D01*
G01X52612Y29944D01*
G01X52521Y30035D01*
G01X52221Y30535D02*
G01X52221Y29899D01*
G01X52221Y30263D02*
G01X52176Y30399D01*
G01X52085Y30490D01*
G01X51994Y30535D01*
G01X51858Y30535D01*
G01X50857Y30308D02*
G01X50039Y30308D01*
G01X48676Y30854D02*
G01X49039Y29899D01*
G01X48676Y30854D02*
G01X48312Y29899D01*
G01X48903Y30217D02*
G01X48448Y30217D01*
G01X47739Y30854D02*
G01X47876Y30808D01*
G01X47967Y30672D01*
G01X48012Y30444D01*
G01X48012Y30308D01*
G01X47967Y30081D01*
G01X47876Y29944D01*
G01X47739Y29899D01*
G01X47648Y29899D01*
G01X47512Y29944D01*
G01X47421Y30081D01*
G01X47376Y30308D01*
G01X47376Y30444D01*
G01X47421Y30672D01*
G01X47512Y30808D01*
G01X47648Y30854D01*
G01X47739Y30854D01*
G01X48768Y36315D02*
G01X48768Y35360D01*
G01X48768Y36315D02*
G01X48404Y35360D01*
G01X48040Y36315D02*
G01X48404Y35360D01*
G01X48040Y36315D02*
G01X48040Y35360D01*
G01X47468Y36315D02*
G01X47558Y36269D01*
G01X47649Y36178D01*
G01X47695Y36087D01*
G01X47740Y35951D01*
G01X47740Y35724D01*
G01X47695Y35587D01*
G01X47649Y35496D01*
G01X47558Y35405D01*
G01X47468Y35360D01*
G01X47286Y35360D01*
G01X47195Y35405D01*
G01X47104Y35496D01*
G01X47058Y35587D01*
G01X47013Y35724D01*
G01X47013Y35951D01*
G01X47058Y36087D01*
G01X47104Y36178D01*
G01X47195Y36269D01*
G01X47286Y36315D01*
G01X47468Y36315D01*
G01X46395Y36315D02*
G01X46395Y35360D01*
G01X46713Y36315D02*
G01X46077Y36315D01*
G01X45504Y36315D02*
G01X45595Y36269D01*
G01X45686Y36178D01*
G01X45731Y36087D01*
G01X45777Y35951D01*
G01X45777Y35724D01*
G01X45731Y35587D01*
G01X45686Y35496D01*
G01X45595Y35405D01*
G01X45504Y35360D01*
G01X45322Y35360D01*
G01X45231Y35405D01*
G01X45140Y35496D01*
G01X45095Y35587D01*
G01X45049Y35724D01*
G01X45049Y35951D01*
G01X45095Y36087D01*
G01X45140Y36178D01*
G01X45231Y36269D01*
G01X45322Y36315D01*
G01X45504Y36315D01*
G01X44749Y36315D02*
G01X44749Y35360D01*
G01X44749Y36315D02*
G01X44340Y36315D01*
G01X44204Y36269D01*
G01X44158Y36224D01*
G01X44113Y36133D01*
G01X44113Y36042D01*
G01X44158Y35951D01*
G01X44204Y35905D01*
G01X44340Y35860D01*
G01X44749Y35860D01*
G01X44431Y35860D02*
G01X44113Y35360D01*
G01X43813Y35042D02*
G01X42995Y35042D01*
G01X42695Y36315D02*
G01X42695Y35360D01*
G01X42695Y36315D02*
G01X42286Y36315D01*
G01X42149Y36269D01*
G01X42104Y36224D01*
G01X42058Y36133D01*
G01X42058Y36042D01*
G01X42104Y35951D01*
G01X42149Y35905D01*
G01X42286Y35860D01*
G01X42695Y35860D01*
G01X42377Y35860D02*
G01X42058Y35360D01*
G01X41058Y35769D02*
G01X40240Y35769D01*
G01X39240Y36315D02*
G01X39240Y35360D01*
G01X39240Y36315D02*
G01X38877Y35360D01*
G01X38513Y36315D02*
G01X38877Y35360D01*
G01X38513Y36315D02*
G01X38513Y35360D01*
G01X37986Y35996D02*
G01X38077Y35951D01*
G01X38167Y35860D01*
G01X38213Y35724D01*
G01X38213Y35633D01*
G01X38167Y35496D01*
G01X38077Y35405D01*
G01X37986Y35360D01*
G01X37849Y35360D01*
G01X37758Y35405D01*
G01X37667Y35496D01*
G01X37622Y35633D01*
G01X37622Y35724D01*
G01X37667Y35860D01*
G01X37758Y35951D01*
G01X37849Y35996D01*
G01X37986Y35996D01*
G01X37186Y36315D02*
G01X37186Y35542D01*
G01X37140Y35405D01*
G01X37049Y35360D01*
G01X36958Y35360D01*
G01X37322Y35996D02*
G01X37004Y35996D01*
G01X36431Y35996D02*
G01X36522Y35951D01*
G01X36613Y35860D01*
G01X36658Y35724D01*
G01X36658Y35633D01*
G01X36613Y35496D01*
G01X36522Y35405D01*
G01X36431Y35360D01*
G01X36295Y35360D01*
G01X36204Y35405D01*
G01X36113Y35496D01*
G01X36068Y35633D01*
G01X36068Y35724D01*
G01X36113Y35860D01*
G01X36204Y35951D01*
G01X36295Y35996D01*
G01X36431Y35996D01*
G01X35768Y35996D02*
G01X35768Y35360D01*
G01X35768Y35724D02*
G01X35722Y35860D01*
G01X35631Y35951D01*
G01X35540Y35996D01*
G01X35404Y35996D01*
G01X34404Y36315D02*
G01X34404Y35360D01*
G01X34404Y36315D02*
G01X33995Y36315D01*
G01X33858Y36269D01*
G01X33813Y36224D01*
G01X33768Y36133D01*
G01X33768Y36042D01*
G01X33813Y35951D01*
G01X33858Y35905D01*
G01X33995Y35860D01*
G01X34404Y35860D02*
G01X33995Y35860D01*
G01X33858Y35815D01*
G01X33813Y35769D01*
G01X33768Y35678D01*
G01X33768Y35542D01*
G01X33813Y35451D01*
G01X33858Y35405D01*
G01X33995Y35360D01*
G01X34404Y35360D01*
G01X48768Y38093D02*
G01X48768Y37138D01*
G01X48768Y38093D02*
G01X48404Y37138D01*
G01X48040Y38093D02*
G01X48404Y37138D01*
G01X48040Y38093D02*
G01X48040Y37138D01*
G01X47468Y38093D02*
G01X47558Y38047D01*
G01X47649Y37956D01*
G01X47695Y37865D01*
G01X47740Y37729D01*
G01X47740Y37502D01*
G01X47695Y37365D01*
G01X47649Y37274D01*
G01X47558Y37183D01*
G01X47468Y37138D01*
G01X47286Y37138D01*
G01X47195Y37183D01*
G01X47104Y37274D01*
G01X47058Y37365D01*
G01X47013Y37502D01*
G01X47013Y37729D01*
G01X47058Y37865D01*
G01X47104Y37956D01*
G01X47195Y38047D01*
G01X47286Y38093D01*
G01X47468Y38093D01*
G01X46395Y38093D02*
G01X46395Y37138D01*
G01X46713Y38093D02*
G01X46077Y38093D01*
G01X45504Y38093D02*
G01X45595Y38047D01*
G01X45686Y37956D01*
G01X45731Y37865D01*
G01X45777Y37729D01*
G01X45777Y37502D01*
G01X45731Y37365D01*
G01X45686Y37274D01*
G01X45595Y37183D01*
G01X45504Y37138D01*
G01X45322Y37138D01*
G01X45231Y37183D01*
G01X45140Y37274D01*
G01X45095Y37365D01*
G01X45049Y37502D01*
G01X45049Y37729D01*
G01X45095Y37865D01*
G01X45140Y37956D01*
G01X45231Y38047D01*
G01X45322Y38093D01*
G01X45504Y38093D01*
G01X44749Y38093D02*
G01X44749Y37138D01*
G01X44749Y38093D02*
G01X44340Y38093D01*
G01X44204Y38047D01*
G01X44158Y38002D01*
G01X44113Y37911D01*
G01X44113Y37820D01*
G01X44158Y37729D01*
G01X44204Y37683D01*
G01X44340Y37638D01*
G01X44749Y37638D01*
G01X44431Y37638D02*
G01X44113Y37138D01*
G01X43813Y36820D02*
G01X42995Y36820D01*
G01X42695Y38093D02*
G01X42695Y37138D01*
G01X42695Y37138D02*
G01X42149Y37138D01*
G01X41149Y37547D02*
G01X40331Y37547D01*
G01X39331Y38093D02*
G01X39331Y37138D01*
G01X39331Y38093D02*
G01X38967Y37138D01*
G01X38604Y38093D02*
G01X38967Y37138D01*
G01X38604Y38093D02*
G01X38604Y37138D01*
G01X38077Y37774D02*
G01X38167Y37729D01*
G01X38258Y37638D01*
G01X38304Y37502D01*
G01X38304Y37411D01*
G01X38258Y37274D01*
G01X38167Y37183D01*
G01X38077Y37138D01*
G01X37940Y37138D01*
G01X37849Y37183D01*
G01X37758Y37274D01*
G01X37713Y37411D01*
G01X37713Y37502D01*
G01X37758Y37638D01*
G01X37849Y37729D01*
G01X37940Y37774D01*
G01X38077Y37774D01*
G01X37277Y38093D02*
G01X37277Y37320D01*
G01X37231Y37183D01*
G01X37140Y37138D01*
G01X37049Y37138D01*
G01X37413Y37774D02*
G01X37095Y37774D01*
G01X36522Y37774D02*
G01X36613Y37729D01*
G01X36704Y37638D01*
G01X36749Y37502D01*
G01X36749Y37411D01*
G01X36704Y37274D01*
G01X36613Y37183D01*
G01X36522Y37138D01*
G01X36386Y37138D01*
G01X36295Y37183D01*
G01X36204Y37274D01*
G01X36158Y37411D01*
G01X36158Y37502D01*
G01X36204Y37638D01*
G01X36295Y37729D01*
G01X36386Y37774D01*
G01X36522Y37774D01*
G01X35858Y37774D02*
G01X35858Y37138D01*
G01X35858Y37502D02*
G01X35813Y37638D01*
G01X35722Y37729D01*
G01X35631Y37774D01*
G01X35495Y37774D01*
G01X34131Y38093D02*
G01X34495Y37138D01*
G01X34131Y38093D02*
G01X33768Y37138D01*
G01X34358Y37456D02*
G01X33904Y37456D01*
G01X57658Y32505D02*
G01X57658Y31550D01*
G01X57658Y32505D02*
G01X57248Y32505D01*
G01X57112Y32459D01*
G01X57067Y32414D01*
G01X57021Y32323D01*
G01X57021Y32186D01*
G01X57067Y32095D01*
G01X57112Y32050D01*
G01X57248Y32005D01*
G01X57658Y32005D01*
G01X56721Y32186D02*
G01X56721Y31732D01*
G01X56676Y31595D01*
G01X56585Y31550D01*
G01X56448Y31550D01*
G01X56358Y31595D01*
G01X56221Y31732D01*
G01X56221Y32186D02*
G01X56221Y31550D01*
G01X55421Y32050D02*
G01X55467Y32141D01*
G01X55603Y32186D01*
G01X55739Y32186D01*
G01X55876Y32141D01*
G01X55921Y32050D01*
G01X55876Y31959D01*
G01X55785Y31914D01*
G01X55558Y31868D01*
G01X55467Y31823D01*
G01X55421Y31732D01*
G01X55421Y31686D01*
G01X55467Y31595D01*
G01X55603Y31550D01*
G01X55739Y31550D01*
G01X55876Y31595D01*
G01X55921Y31686D01*
G01X55121Y32505D02*
G01X55121Y31550D01*
G01X55121Y32005D02*
G01X54985Y32141D01*
G01X54894Y32186D01*
G01X54758Y32186D01*
G01X54667Y32141D01*
G01X54621Y32005D01*
G01X54621Y31550D01*
G01X53621Y32505D02*
G01X53621Y31550D01*
G01X53621Y32505D02*
G01X53212Y32505D01*
G01X53076Y32459D01*
G01X53030Y32414D01*
G01X52985Y32323D01*
G01X52985Y32232D01*
G01X53030Y32141D01*
G01X53076Y32095D01*
G01X53212Y32050D01*
G01X53621Y32050D02*
G01X53212Y32050D01*
G01X53076Y32005D01*
G01X53030Y31959D01*
G01X52985Y31868D01*
G01X52985Y31732D01*
G01X53030Y31641D01*
G01X53076Y31595D01*
G01X53212Y31550D01*
G01X53621Y31550D01*
G01X52685Y32186D02*
G01X52685Y31732D01*
G01X52639Y31595D01*
G01X52548Y31550D01*
G01X52412Y31550D01*
G01X52321Y31595D01*
G01X52185Y31732D01*
G01X52185Y32186D02*
G01X52185Y31550D01*
G01X51748Y32505D02*
G01X51748Y31732D01*
G01X51703Y31595D01*
G01X51612Y31550D01*
G01X51521Y31550D01*
G01X51885Y32186D02*
G01X51567Y32186D01*
G01X51085Y32505D02*
G01X51085Y31732D01*
G01X51039Y31595D01*
G01X50948Y31550D01*
G01X50858Y31550D01*
G01X51221Y32186D02*
G01X50903Y32186D01*
G01X50330Y32186D02*
G01X50421Y32141D01*
G01X50512Y32050D01*
G01X50558Y31914D01*
G01X50558Y31823D01*
G01X50512Y31686D01*
G01X50421Y31595D01*
G01X50330Y31550D01*
G01X50194Y31550D01*
G01X50103Y31595D01*
G01X50012Y31686D01*
G01X49967Y31823D01*
G01X49967Y31914D01*
G01X50012Y32050D01*
G01X50103Y32141D01*
G01X50194Y32186D01*
G01X50330Y32186D01*
G01X49667Y32186D02*
G01X49667Y31550D01*
G01X49667Y32005D02*
G01X49530Y32141D01*
G01X49439Y32186D01*
G01X49303Y32186D01*
G01X49212Y32141D01*
G01X49167Y32005D01*
G01X49167Y31550D01*
G01X48167Y31959D02*
G01X47348Y31959D01*
G01X46348Y32505D02*
G01X46348Y31550D01*
G01X46348Y32505D02*
G01X46030Y32505D01*
G01X45894Y32459D01*
G01X45803Y32368D01*
G01X45758Y32277D01*
G01X45712Y32141D01*
G01X45712Y31914D01*
G01X45758Y31777D01*
G01X45803Y31686D01*
G01X45894Y31595D01*
G01X46030Y31550D01*
G01X46348Y31550D01*
G01X45367Y32277D02*
G01X45367Y32323D01*
G01X45321Y32414D01*
G01X45276Y32459D01*
G01X45185Y32505D01*
G01X45003Y32505D01*
G01X44912Y32459D01*
G01X44867Y32414D01*
G01X44821Y32323D01*
G01X44821Y32232D01*
G01X44867Y32141D01*
G01X44958Y32005D01*
G01X45412Y31550D01*
G01X44776Y31550D01*
G01X43458Y32686D02*
G01X43548Y32595D01*
G01X43639Y32459D01*
G01X43730Y32277D01*
G01X43776Y32050D01*
G01X43776Y31868D01*
G01X43730Y31641D01*
G01X43639Y31459D01*
G01X43548Y31323D01*
G01X43458Y31232D01*
G01X43158Y32505D02*
G01X43158Y31550D01*
G01X42858Y32505D02*
G01X42858Y31550D01*
G01X42858Y32505D02*
G01X42221Y31550D01*
G01X42221Y32505D02*
G01X42221Y31550D01*
G01X41921Y32505D02*
G01X41921Y31550D01*
G01X41921Y32505D02*
G01X41512Y32505D01*
G01X41376Y32459D01*
G01X41330Y32414D01*
G01X41285Y32323D01*
G01X41285Y32186D01*
G01X41330Y32095D01*
G01X41376Y32050D01*
G01X41512Y32005D01*
G01X41921Y32005D01*
G01X40985Y32505D02*
G01X40985Y31823D01*
G01X40939Y31686D01*
G01X40848Y31595D01*
G01X40712Y31550D01*
G01X40621Y31550D01*
G01X40485Y31595D01*
G01X40394Y31686D01*
G01X40348Y31823D01*
G01X40348Y32505D01*
G01X39730Y32505D02*
G01X39730Y31550D01*
G01X40048Y32505D02*
G01X39412Y32505D01*
G01X39112Y31232D02*
G01X38294Y31232D01*
G01X37994Y32505D02*
G01X37994Y31550D01*
G01X37994Y32505D02*
G01X37585Y32505D01*
G01X37448Y32459D01*
G01X37403Y32414D01*
G01X37358Y32323D01*
G01X37358Y32186D01*
G01X37403Y32095D01*
G01X37448Y32050D01*
G01X37585Y32005D01*
G01X37994Y32005D01*
G01X37058Y32505D02*
G01X37058Y31823D01*
G01X37012Y31686D01*
G01X36921Y31595D01*
G01X36785Y31550D01*
G01X36694Y31550D01*
G01X36558Y31595D01*
G01X36467Y31686D01*
G01X36421Y31823D01*
G01X36421Y32505D01*
G01X36121Y32505D02*
G01X36121Y31550D01*
G01X36121Y31550D02*
G01X35576Y31550D01*
G01X35276Y32505D02*
G01X35276Y31550D01*
G01X35276Y31550D02*
G01X34730Y31550D01*
G01X34430Y32505D02*
G01X34430Y31823D01*
G01X34385Y31686D01*
G01X34294Y31595D01*
G01X34158Y31550D01*
G01X34067Y31550D01*
G01X33930Y31595D01*
G01X33839Y31686D01*
G01X33794Y31823D01*
G01X33794Y32505D01*
G01X33494Y32505D02*
G01X33494Y31550D01*
G01X33494Y32505D02*
G01X33085Y32505D01*
G01X32948Y32459D01*
G01X32903Y32414D01*
G01X32858Y32323D01*
G01X32858Y32186D01*
G01X32903Y32095D01*
G01X32948Y32050D01*
G01X33085Y32005D01*
G01X33494Y32005D01*
G01X32558Y32686D02*
G01X32467Y32595D01*
G01X32376Y32459D01*
G01X32285Y32277D01*
G01X32239Y32050D01*
G01X32239Y31868D01*
G01X32285Y31641D01*
G01X32376Y31459D01*
G01X32467Y31323D01*
G01X32558Y31232D01*
G01X64897Y36315D02*
G01X64897Y35360D01*
G01X64897Y36315D02*
G01X64306Y36315D01*
G01X64897Y35860D02*
G01X64533Y35860D01*
G01X64897Y35360D02*
G01X64306Y35360D01*
G01X64006Y36315D02*
G01X64006Y35360D01*
G01X64006Y36315D02*
G01X63687Y36315D01*
G01X63551Y36269D01*
G01X63460Y36178D01*
G01X63415Y36087D01*
G01X63369Y35951D01*
G01X63369Y35724D01*
G01X63415Y35587D01*
G01X63460Y35496D01*
G01X63551Y35405D01*
G01X63687Y35360D01*
G01X64006Y35360D01*
G01X62387Y36087D02*
G01X62433Y36178D01*
G01X62524Y36269D01*
G01X62615Y36315D01*
G01X62797Y36315D01*
G01X62887Y36269D01*
G01X62978Y36178D01*
G01X63024Y36087D01*
G01X63069Y35951D01*
G01X63069Y35724D01*
G01X63024Y35587D01*
G01X62978Y35496D01*
G01X62887Y35405D01*
G01X62797Y35360D01*
G01X62615Y35360D01*
G01X62524Y35405D01*
G01X62433Y35496D01*
G01X62387Y35587D01*
G01X62387Y35724D01*
G01X62615Y35724D02*
G01X62387Y35724D01*
G01X62087Y36315D02*
G01X62087Y35360D01*
G01X62087Y36315D02*
G01X61497Y36315D01*
G01X62087Y35860D02*
G01X61724Y35860D01*
G01X62087Y35360D02*
G01X61497Y35360D01*
G01X61197Y35042D02*
G01X60378Y35042D01*
G01X60078Y36315D02*
G01X60078Y35360D01*
G01X60078Y36315D02*
G01X59669Y36315D01*
G01X59533Y36269D01*
G01X59487Y36224D01*
G01X59442Y36133D01*
G01X59442Y36042D01*
G01X59487Y35951D01*
G01X59533Y35905D01*
G01X59669Y35860D01*
G01X60078Y35860D01*
G01X59760Y35860D02*
G01X59442Y35360D01*
G01X58442Y35769D02*
G01X57624Y35769D01*
G01X56260Y36315D02*
G01X56624Y35360D01*
G01X56260Y36315D02*
G01X55896Y35360D01*
G01X56487Y35678D02*
G01X56033Y35678D01*
G01X54960Y36315D02*
G01X55415Y35360D01*
G01X55596Y36315D02*
G01X54960Y36315D01*
G01X64897Y38093D02*
G01X64897Y37138D01*
G01X64897Y38093D02*
G01X64306Y38093D01*
G01X64897Y37638D02*
G01X64533Y37638D01*
G01X64897Y37138D02*
G01X64306Y37138D01*
G01X64006Y38093D02*
G01X64006Y37138D01*
G01X64006Y38093D02*
G01X63687Y38093D01*
G01X63551Y38047D01*
G01X63460Y37956D01*
G01X63415Y37865D01*
G01X63369Y37729D01*
G01X63369Y37502D01*
G01X63415Y37365D01*
G01X63460Y37274D01*
G01X63551Y37183D01*
G01X63687Y37138D01*
G01X64006Y37138D01*
G01X62387Y37865D02*
G01X62433Y37956D01*
G01X62524Y38047D01*
G01X62615Y38093D01*
G01X62797Y38093D01*
G01X62887Y38047D01*
G01X62978Y37956D01*
G01X63024Y37865D01*
G01X63069Y37729D01*
G01X63069Y37502D01*
G01X63024Y37365D01*
G01X62978Y37274D01*
G01X62887Y37183D01*
G01X62797Y37138D01*
G01X62615Y37138D01*
G01X62524Y37183D01*
G01X62433Y37274D01*
G01X62387Y37365D01*
G01X62387Y37502D01*
G01X62615Y37502D02*
G01X62387Y37502D01*
G01X62087Y38093D02*
G01X62087Y37138D01*
G01X62087Y38093D02*
G01X61497Y38093D01*
G01X62087Y37638D02*
G01X61724Y37638D01*
G01X62087Y37138D02*
G01X61497Y37138D01*
G01X61197Y36820D02*
G01X60378Y36820D01*
G01X60078Y38093D02*
G01X60078Y37138D01*
G01X60078Y37138D02*
G01X59533Y37138D01*
G01X58533Y37547D02*
G01X57715Y37547D01*
G01X56351Y38093D02*
G01X56715Y37138D01*
G01X56351Y38093D02*
G01X55987Y37138D01*
G01X56578Y37456D02*
G01X56124Y37456D01*
G01X55142Y37956D02*
G01X55187Y38047D01*
G01X55324Y38093D01*
G01X55415Y38093D01*
G01X55551Y38047D01*
G01X55642Y37911D01*
G01X55687Y37683D01*
G01X55687Y37456D01*
G01X55642Y37274D01*
G01X55551Y37183D01*
G01X55415Y37138D01*
G01X55369Y37138D01*
G01X55233Y37183D01*
G01X55142Y37274D01*
G01X55096Y37411D01*
G01X55096Y37456D01*
G01X55142Y37593D01*
G01X55233Y37683D01*
G01X55369Y37729D01*
G01X55415Y37729D01*
G01X55551Y37683D01*
G01X55642Y37593D01*
G01X55687Y37456D01*
G01X75264Y36087D02*
G01X75309Y36178D01*
G01X75400Y36269D01*
G01X75491Y36315D01*
G01X75673Y36315D01*
G01X75764Y36269D01*
G01X75855Y36178D01*
G01X75900Y36087D01*
G01X75946Y35951D01*
G01X75946Y35724D01*
G01X75900Y35587D01*
G01X75855Y35496D01*
G01X75764Y35405D01*
G01X75673Y35360D01*
G01X75491Y35360D01*
G01X75400Y35405D01*
G01X75309Y35496D01*
G01X75264Y35587D01*
G01X74600Y36315D02*
G01X74964Y35360D01*
G01X74600Y36315D02*
G01X74236Y35360D01*
G01X74827Y35678D02*
G01X74373Y35678D01*
G01X73936Y36315D02*
G01X73936Y35360D01*
G01X73936Y35360D02*
G01X73391Y35360D01*
G01X72391Y35769D02*
G01X71573Y35769D01*
G01X70573Y36315D02*
G01X70573Y35360D01*
G01X70573Y36315D02*
G01X70255Y36315D01*
G01X70118Y36269D01*
G01X70027Y36178D01*
G01X69982Y36087D01*
G01X69936Y35951D01*
G01X69936Y35724D01*
G01X69982Y35587D01*
G01X70027Y35496D01*
G01X70118Y35405D01*
G01X70255Y35360D01*
G01X70573Y35360D01*
G01X69636Y36133D02*
G01X69545Y36178D01*
G01X69409Y36315D01*
G01X69409Y35360D01*
G01X69018Y36315D02*
G01X68518Y36315D01*
G01X68791Y35951D01*
G01X68655Y35951D01*
G01X68564Y35905D01*
G01X68518Y35860D01*
G01X68473Y35724D01*
G01X68473Y35633D01*
G01X68518Y35496D01*
G01X68609Y35405D01*
G01X68745Y35360D01*
G01X68882Y35360D01*
G01X69018Y35405D01*
G01X69064Y35451D01*
G01X69109Y35542D01*
G01X75946Y38093D02*
G01X75946Y37138D01*
G01X75946Y37138D02*
G01X75400Y37138D01*
G01X75100Y38093D02*
G01X75100Y37138D01*
G01X74800Y38093D02*
G01X74800Y37138D01*
G01X74800Y38093D02*
G01X74164Y37138D01*
G01X74164Y38093D02*
G01X74164Y37138D01*
G01X73864Y38093D02*
G01X73864Y37138D01*
G01X73864Y38093D02*
G01X73273Y38093D01*
G01X73864Y37638D02*
G01X73500Y37638D01*
G01X73864Y37138D02*
G01X73273Y37138D01*
G01X71636Y37956D02*
G01X71727Y38047D01*
G01X71864Y38093D01*
G01X72046Y38093D01*
G01X72182Y38047D01*
G01X72273Y37956D01*
G01X72273Y37865D01*
G01X72227Y37774D01*
G01X72182Y37729D01*
G01X72091Y37684D01*
G01X71818Y37593D01*
G01X71727Y37547D01*
G01X71682Y37502D01*
G01X71636Y37411D01*
G01X71636Y37274D01*
G01X71727Y37184D01*
G01X71864Y37138D01*
G01X72046Y37138D01*
G01X72182Y37184D01*
G01X72273Y37274D01*
G01X71336Y38093D02*
G01X71336Y37138D01*
G01X71336Y38093D02*
G01X70746Y38093D01*
G01X71336Y37638D02*
G01X70973Y37638D01*
G01X71336Y37138D02*
G01X70746Y37138D01*
G01X70446Y38093D02*
G01X70446Y37138D01*
G01X70446Y38093D02*
G01X69809Y37138D01*
G01X69809Y38093D02*
G01X69809Y37138D01*
G01X68873Y37956D02*
G01X68964Y38047D01*
G01X69100Y38093D01*
G01X69282Y38093D01*
G01X69418Y38047D01*
G01X69509Y37956D01*
G01X69509Y37865D01*
G01X69464Y37774D01*
G01X69418Y37729D01*
G01X69327Y37684D01*
G01X69055Y37593D01*
G01X68964Y37547D01*
G01X68918Y37502D01*
G01X68873Y37411D01*
G01X68873Y37274D01*
G01X68964Y37184D01*
G01X69100Y37138D01*
G01X69282Y37138D01*
G01X69418Y37184D01*
G01X69509Y37274D01*
G01X68300Y38093D02*
G01X68391Y38047D01*
G01X68482Y37956D01*
G01X68527Y37865D01*
G01X68573Y37729D01*
G01X68573Y37502D01*
G01X68527Y37365D01*
G01X68482Y37274D01*
G01X68391Y37184D01*
G01X68300Y37138D01*
G01X68118Y37138D01*
G01X68027Y37184D01*
G01X67936Y37274D01*
G01X67891Y37365D01*
G01X67845Y37502D01*
G01X67845Y37729D01*
G01X67891Y37865D01*
G01X67936Y37956D01*
G01X68027Y38047D01*
G01X68118Y38093D01*
G01X68300Y38093D01*
G01X67545Y38093D02*
G01X67545Y37138D01*
G01X67545Y38093D02*
G01X67136Y38093D01*
G01X67000Y38047D01*
G01X66955Y38002D01*
G01X66909Y37911D01*
G01X66909Y37820D01*
G01X66955Y37729D01*
G01X67000Y37684D01*
G01X67136Y37638D01*
G01X67545Y37638D01*
G01X67227Y37638D02*
G01X66909Y37138D01*
G54D32*
G01X45085Y44288D02*
G01X45085Y39515D01*
G01X45085Y39515D02*
G01X42357Y39515D01*
G01X40857Y44288D02*
G01X40630Y44061D01*
G01X40403Y44288D01*
G01X40630Y44515D01*
G01X40857Y44288D01*
G01X40630Y42697D02*
G01X40630Y39515D01*
G01X38903Y42697D02*
G01X38903Y39515D01*
G01X38903Y41788D02*
G01X38221Y42470D01*
G01X37766Y42697D01*
G01X37084Y42697D01*
G01X36630Y42470D01*
G01X36403Y41788D01*
G01X36403Y39515D01*
G01X34903Y41333D02*
G01X32175Y41333D01*
G01X32175Y41788D01*
G01X32403Y42242D01*
G01X32630Y42470D01*
G01X33084Y42697D01*
G01X33766Y42697D01*
G01X34221Y42470D01*
G01X34675Y42015D01*
G01X34903Y41333D01*
G01X34903Y40879D01*
G01X34675Y40197D01*
G01X34221Y39742D01*
G01X33766Y39515D01*
G01X33084Y39515D01*
G01X32630Y39742D01*
G01X32175Y40197D01*
G01X30675Y42697D02*
G01X30675Y39515D01*
G01X30675Y41333D02*
G01X30448Y42015D01*
G01X29994Y42470D01*
G01X29539Y42697D01*
G01X28857Y42697D01*
G01X27357Y44288D02*
G01X27357Y39515D01*
G01X27357Y44288D02*
G01X25312Y44288D01*
G01X24630Y44061D01*
G01X24403Y43833D01*
G01X24175Y43379D01*
G01X24175Y42924D01*
G01X24403Y42470D01*
G01X24630Y42242D01*
G01X25312Y42015D01*
G01X27357Y42015D02*
G01X25312Y42015D01*
G01X24630Y41788D01*
G01X24403Y41561D01*
G01X24175Y41106D01*
G01X24175Y40424D01*
G01X24403Y39970D01*
G01X24630Y39742D01*
G01X25312Y39515D01*
G01X27357Y39515D01*
G01X21539Y42697D02*
G01X21994Y42470D01*
G01X22448Y42015D01*
G01X22675Y41333D01*
G01X22675Y40879D01*
G01X22448Y40197D01*
G01X21994Y39742D01*
G01X21539Y39515D01*
G01X20857Y39515D01*
G01X20403Y39742D01*
G01X19948Y40197D01*
G01X19721Y40879D01*
G01X19721Y41333D01*
G01X19948Y42015D01*
G01X20403Y42470D01*
G01X20857Y42697D01*
G01X21539Y42697D01*
G01X17539Y44288D02*
G01X17539Y40424D01*
G01X17312Y39742D01*
G01X16857Y39515D01*
G01X16403Y39515D01*
G01X18221Y42697D02*
G01X16630Y42697D01*
G54D28*
G01X61849Y40502D02*
G01X61849Y39070D01*
G01X61849Y40502D02*
G01X61235Y40502D01*
G01X61030Y40434D01*
G01X60962Y40366D01*
G01X60894Y40229D01*
G01X60894Y40093D01*
G01X60962Y39957D01*
G01X61030Y39888D01*
G01X61235Y39820D01*
G01X61849Y39820D02*
G01X61235Y39820D01*
G01X61030Y39752D01*
G01X60962Y39684D01*
G01X60894Y39548D01*
G01X60894Y39343D01*
G01X60962Y39207D01*
G01X61030Y39139D01*
G01X61235Y39070D01*
G01X61849Y39070D01*
G01X60444Y40502D02*
G01X60444Y39070D01*
G01X60444Y40502D02*
G01X59830Y40502D01*
G01X59626Y40434D01*
G01X59558Y40366D01*
G01X59489Y40229D01*
G01X59489Y40093D01*
G01X59558Y39957D01*
G01X59626Y39888D01*
G01X59830Y39820D01*
G01X60444Y39820D01*
G01X59967Y39820D02*
G01X59489Y39070D01*
G01X59039Y40502D02*
G01X59039Y39070D01*
G01X58589Y40502D02*
G01X58589Y39070D01*
G01X58589Y40502D02*
G01X57635Y39070D01*
G01X57635Y40502D02*
G01X57635Y39070D01*
G01X56162Y40161D02*
G01X56230Y40298D01*
G01X56367Y40434D01*
G01X56503Y40502D01*
G01X56776Y40502D01*
G01X56912Y40434D01*
G01X57049Y40298D01*
G01X57117Y40161D01*
G01X57185Y39957D01*
G01X57185Y39616D01*
G01X57117Y39411D01*
G01X57049Y39275D01*
G01X56912Y39139D01*
G01X56776Y39070D01*
G01X56503Y39070D01*
G01X56367Y39139D01*
G01X56230Y39275D01*
G01X56162Y39411D01*
G01X56162Y39616D01*
G01X56503Y39616D02*
G01X56162Y39616D01*
G01X54758Y40298D02*
G01X54894Y40434D01*
G01X55099Y40502D01*
G01X55371Y40502D01*
G01X55576Y40434D01*
G01X55712Y40298D01*
G01X55712Y40161D01*
G01X55644Y40025D01*
G01X55576Y39957D01*
G01X55439Y39888D01*
G01X55030Y39752D01*
G01X54894Y39684D01*
G01X54826Y39616D01*
G01X54758Y39479D01*
G01X54758Y39275D01*
G01X54894Y39139D01*
G01X55099Y39070D01*
G01X55371Y39070D01*
G01X55576Y39139D01*
G01X55712Y39275D01*
G01X53258Y40502D02*
G01X52712Y39820D01*
G01X52712Y39070D01*
G01X52167Y40502D02*
G01X52712Y39820D01*
G01X51308Y40502D02*
G01X51444Y40434D01*
G01X51580Y40298D01*
G01X51648Y40161D01*
G01X51717Y39957D01*
G01X51717Y39616D01*
G01X51648Y39411D01*
G01X51580Y39275D01*
G01X51444Y39139D01*
G01X51308Y39070D01*
G01X51035Y39070D01*
G01X50899Y39139D01*
G01X50762Y39275D01*
G01X50694Y39411D01*
G01X50626Y39616D01*
G01X50626Y39957D01*
G01X50694Y40161D01*
G01X50762Y40298D01*
G01X50899Y40434D01*
G01X51035Y40502D01*
G01X51308Y40502D01*
G01X50176Y40502D02*
G01X50176Y39479D01*
G01X50108Y39275D01*
G01X49971Y39139D01*
G01X49767Y39070D01*
G01X49630Y39070D01*
G01X49426Y39139D01*
G01X49289Y39275D01*
G01X49221Y39479D01*
G01X49221Y40502D01*
G54D12*
G01X47752Y19801D02*
G01X47752Y18369D01*
G01X47752Y19801D02*
G01X47138Y19801D01*
G01X46933Y19733D01*
G01X46865Y19665D01*
G01X46797Y19528D01*
G01X46797Y19392D01*
G01X46865Y19256D01*
G01X46933Y19187D01*
G01X47138Y19119D01*
G01X47752Y19119D02*
G01X47138Y19119D01*
G01X46933Y19051D01*
G01X46865Y18983D01*
G01X46797Y18847D01*
G01X46797Y18642D01*
G01X46865Y18506D01*
G01X46933Y18438D01*
G01X47138Y18369D01*
G01X47752Y18369D01*
G01X46347Y19801D02*
G01X45801Y19119D01*
G01X45801Y18369D01*
G01X45256Y19801D02*
G01X45801Y19119D01*
G01X53848Y22468D02*
G01X53848Y21036D01*
G01X53848Y22468D02*
G01X53370Y22468D01*
G01X53166Y22400D01*
G01X53029Y22264D01*
G01X52961Y22127D01*
G01X52893Y21923D01*
G01X52893Y21582D01*
G01X52961Y21377D01*
G01X53029Y21241D01*
G01X53166Y21104D01*
G01X53370Y21036D01*
G01X53848Y21036D01*
G01X52443Y22468D02*
G01X52443Y21036D01*
G01X52443Y22468D02*
G01X51557Y22468D01*
G01X52443Y21786D02*
G01X51897Y21786D01*
G01X52443Y21036D02*
G01X51557Y21036D01*
G01X50152Y22264D02*
G01X50288Y22400D01*
G01X50493Y22468D01*
G01X50766Y22468D01*
G01X50970Y22400D01*
G01X51107Y22264D01*
G01X51107Y22127D01*
G01X51038Y21991D01*
G01X50970Y21923D01*
G01X50834Y21854D01*
G01X50425Y21718D01*
G01X50288Y21650D01*
G01X50220Y21582D01*
G01X50152Y21445D01*
G01X50152Y21241D01*
G01X50288Y21104D01*
G01X50493Y21036D01*
G01X50766Y21036D01*
G01X50970Y21104D01*
G01X51107Y21241D01*
G01X49702Y22468D02*
G01X49702Y21036D01*
G01X48229Y22127D02*
G01X48298Y22264D01*
G01X48434Y22400D01*
G01X48570Y22468D01*
G01X48843Y22468D01*
G01X48979Y22400D01*
G01X49116Y22264D01*
G01X49184Y22127D01*
G01X49252Y21923D01*
G01X49252Y21582D01*
G01X49184Y21377D01*
G01X49116Y21241D01*
G01X48979Y21104D01*
G01X48843Y21036D01*
G01X48570Y21036D01*
G01X48434Y21104D01*
G01X48298Y21241D01*
G01X48229Y21377D01*
G01X48229Y21582D01*
G01X48570Y21582D02*
G01X48229Y21582D01*
G01X47779Y22468D02*
G01X47779Y21036D01*
G01X47779Y22468D02*
G01X46825Y21036D01*
G01X46825Y22468D02*
G01X46825Y21036D01*
G01X46375Y22468D02*
G01X46375Y21036D01*
G01X46375Y22468D02*
G01X45488Y22468D01*
G01X46375Y21786D02*
G01X45829Y21786D01*
G01X46375Y21036D02*
G01X45488Y21036D01*
G01X45038Y22468D02*
G01X45038Y21036D01*
G01X45038Y22468D02*
G01X44561Y22468D01*
G01X44357Y22400D01*
G01X44220Y22264D01*
G01X44152Y22127D01*
G01X44084Y21923D01*
G01X44084Y21582D01*
G01X44152Y21377D01*
G01X44220Y21241D01*
G01X44357Y21104D01*
G01X44561Y21036D01*
G01X45038Y21036D01*
G54D33*
G01X42037Y56887D02*
G01X42037Y55694D01*
G01X42037Y56262D02*
G01X41866Y56432D01*
G01X41752Y56489D01*
G01X41582Y56489D01*
G01X41468Y56432D01*
G01X41412Y56262D01*
G01X41412Y55694D01*
G01X40866Y56887D02*
G01X40866Y55921D01*
G01X40809Y55750D01*
G01X40696Y55694D01*
G01X40582Y55694D01*
G01X41037Y56489D02*
G01X40639Y56489D01*
G01X40037Y56887D02*
G01X40037Y55921D01*
G01X39980Y55750D01*
G01X39866Y55694D01*
G01X39752Y55694D01*
G01X40207Y56489D02*
G01X39809Y56489D01*
G01X39377Y56489D02*
G01X39377Y55296D01*
G01X39377Y56319D02*
G01X39264Y56432D01*
G01X39150Y56489D01*
G01X38980Y56489D01*
G01X38866Y56432D01*
G01X38752Y56319D01*
G01X38696Y56148D01*
G01X38696Y56035D01*
G01X38752Y55864D01*
G01X38866Y55750D01*
G01X38980Y55694D01*
G01X39150Y55694D01*
G01X39264Y55750D01*
G01X39377Y55864D01*
G01X37696Y56319D02*
G01X37752Y56432D01*
G01X37923Y56489D01*
G01X38093Y56489D01*
G01X38264Y56432D01*
G01X38321Y56319D01*
G01X38264Y56205D01*
G01X38150Y56148D01*
G01X37866Y56091D01*
G01X37752Y56035D01*
G01X37696Y55921D01*
G01X37696Y55864D01*
G01X37752Y55750D01*
G01X37923Y55694D01*
G01X38093Y55694D01*
G01X38264Y55750D01*
G01X38321Y55864D01*
G01X37264Y56376D02*
G01X37321Y56319D01*
G01X37264Y56262D01*
G01X37207Y56319D01*
G01X37264Y56376D01*
G01X37264Y55978D02*
G01X37321Y55921D01*
G01X37264Y55864D01*
G01X37207Y55921D01*
G01X37264Y55978D01*
G01X35809Y57114D02*
G01X36832Y55296D01*
G01X34411Y57114D02*
G01X35434Y55296D01*
G01X33355Y56489D02*
G01X33355Y55580D01*
G01X33411Y55410D01*
G01X33468Y55353D01*
G01X33582Y55296D01*
G01X33752Y55296D01*
G01X33866Y55353D01*
G01X33355Y56319D02*
G01X33468Y56432D01*
G01X33582Y56489D01*
G01X33752Y56489D01*
G01X33866Y56432D01*
G01X33980Y56319D01*
G01X34036Y56148D01*
G01X34036Y56035D01*
G01X33980Y55864D01*
G01X33866Y55750D01*
G01X33752Y55694D01*
G01X33582Y55694D01*
G01X33468Y55750D01*
G01X33355Y55864D01*
G01X32980Y56887D02*
G01X32923Y56830D01*
G01X32866Y56887D01*
G01X32923Y56944D01*
G01X32980Y56887D01*
G01X32923Y56489D02*
G01X32923Y55694D01*
G01X32321Y56887D02*
G01X32321Y55921D01*
G01X32264Y55750D01*
G01X32150Y55694D01*
G01X32036Y55694D01*
G01X32491Y56489D02*
G01X32093Y56489D01*
G01X31661Y56887D02*
G01X31661Y55694D01*
G01X31661Y56262D02*
G01X31491Y56432D01*
G01X31377Y56489D01*
G01X31207Y56489D01*
G01X31093Y56432D01*
G01X31036Y56262D01*
G01X31036Y55694D01*
G01X30661Y56489D02*
G01X30661Y55921D01*
G01X30605Y55750D01*
G01X30491Y55694D01*
G01X30321Y55694D01*
G01X30207Y55750D01*
G01X30036Y55921D01*
G01X30036Y56489D02*
G01X30036Y55694D01*
G01X29661Y56887D02*
G01X29661Y55694D01*
G01X29661Y56319D02*
G01X29548Y56432D01*
G01X29434Y56489D01*
G01X29264Y56489D01*
G01X29150Y56432D01*
G01X29037Y56319D01*
G01X28980Y56148D01*
G01X28980Y56035D01*
G01X29037Y55864D01*
G01X29150Y55750D01*
G01X29264Y55694D01*
G01X29434Y55694D01*
G01X29548Y55750D01*
G01X29661Y55864D01*
G01X28548Y55978D02*
G01X28605Y55921D01*
G01X28548Y55864D01*
G01X28491Y55921D01*
G01X28548Y55978D01*
G01X27434Y56319D02*
G01X27548Y56432D01*
G01X27661Y56489D01*
G01X27832Y56489D01*
G01X27946Y56432D01*
G01X28059Y56319D01*
G01X28116Y56148D01*
G01X28116Y56035D01*
G01X28059Y55864D01*
G01X27946Y55750D01*
G01X27832Y55694D01*
G01X27661Y55694D01*
G01X27548Y55750D01*
G01X27434Y55864D01*
G01X26775Y56489D02*
G01X26889Y56432D01*
G01X27002Y56319D01*
G01X27059Y56148D01*
G01X27059Y56035D01*
G01X27002Y55864D01*
G01X26889Y55750D01*
G01X26775Y55694D01*
G01X26605Y55694D01*
G01X26491Y55750D01*
G01X26377Y55864D01*
G01X26321Y56035D01*
G01X26321Y56148D01*
G01X26377Y56319D01*
G01X26491Y56432D01*
G01X26605Y56489D01*
G01X26775Y56489D01*
G01X25946Y56489D02*
G01X25946Y55694D01*
G01X25946Y56262D02*
G01X25775Y56432D01*
G01X25662Y56489D01*
G01X25491Y56489D01*
G01X25377Y56432D01*
G01X25321Y56262D01*
G01X25321Y55694D01*
G01X25321Y56262D02*
G01X25150Y56432D01*
G01X25037Y56489D01*
G01X24866Y56489D01*
G01X24752Y56432D01*
G01X24696Y56262D01*
G01X24696Y55694D01*
G01X23298Y57114D02*
G01X24321Y55296D01*
G01X22241Y56887D02*
G01X22241Y55694D01*
G01X22241Y56319D02*
G01X22355Y56432D01*
G01X22468Y56489D01*
G01X22639Y56489D01*
G01X22752Y56432D01*
G01X22866Y56319D01*
G01X22923Y56148D01*
G01X22923Y56035D01*
G01X22866Y55864D01*
G01X22752Y55750D01*
G01X22639Y55694D01*
G01X22468Y55694D01*
G01X22355Y55750D01*
G01X22241Y55864D01*
G01X21866Y56489D02*
G01X21866Y55921D01*
G01X21809Y55750D01*
G01X21696Y55694D01*
G01X21525Y55694D01*
G01X21411Y55750D01*
G01X21241Y55921D01*
G01X21241Y56489D02*
G01X21241Y55694D01*
G01X20582Y56489D02*
G01X20696Y56432D01*
G01X20809Y56319D01*
G01X20866Y56148D01*
G01X20866Y56035D01*
G01X20809Y55864D01*
G01X20696Y55750D01*
G01X20582Y55694D01*
G01X20411Y55694D01*
G01X20298Y55750D01*
G01X20184Y55864D01*
G01X20127Y56035D01*
G01X20127Y56148D01*
G01X20184Y56319D01*
G01X20298Y56432D01*
G01X20411Y56489D01*
G01X20582Y56489D01*
G01X19752Y56887D02*
G01X19752Y55694D01*
G01X19184Y56489D02*
G01X19752Y55921D01*
G01X19525Y56148D02*
G01X19127Y55694D01*
G01X18752Y56887D02*
G01X18696Y56830D01*
G01X18639Y56887D01*
G01X18696Y56944D01*
G01X18752Y56887D01*
G01X18696Y56489D02*
G01X18696Y55694D01*
G01X18264Y56489D02*
G01X18264Y55694D01*
G01X18264Y56262D02*
G01X18093Y56432D01*
G01X17980Y56489D01*
G01X17809Y56489D01*
G01X17696Y56432D01*
G01X17639Y56262D01*
G01X17639Y55694D01*
G01X16980Y56489D02*
G01X17093Y56432D01*
G01X17207Y56319D01*
G01X17264Y56148D01*
G01X17264Y56035D01*
G01X17207Y55864D01*
G01X17093Y55750D01*
G01X16980Y55694D01*
G01X16809Y55694D01*
G01X16696Y55750D01*
G01X16582Y55864D01*
G01X16525Y56035D01*
G01X16525Y56148D01*
G01X16582Y56319D01*
G01X16696Y56432D01*
G01X16809Y56489D01*
G01X16980Y56489D01*
G01X15127Y57114D02*
G01X16150Y55296D01*
G01X14752Y56887D02*
G01X14752Y55694D01*
G01X14377Y56887D02*
G01X14321Y56830D01*
G01X14264Y56887D01*
G01X14321Y56944D01*
G01X14377Y56887D01*
G01X14321Y56489D02*
G01X14321Y55694D01*
G01X13889Y56489D02*
G01X13889Y55694D01*
G01X13889Y56262D02*
G01X13718Y56432D01*
G01X13605Y56489D01*
G01X13434Y56489D01*
G01X13321Y56432D01*
G01X13264Y56262D01*
G01X13264Y55694D01*
G01X12889Y56148D02*
G01X12207Y56148D01*
G01X12207Y56262D01*
G01X12264Y56376D01*
G01X12321Y56432D01*
G01X12434Y56489D01*
G01X12605Y56489D01*
G01X12718Y56432D01*
G01X12832Y56319D01*
G01X12889Y56148D01*
G01X12889Y56035D01*
G01X12832Y55864D01*
G01X12718Y55750D01*
G01X12605Y55694D01*
G01X12434Y55694D01*
G01X12321Y55750D01*
G01X12207Y55864D01*
G01X11832Y56489D02*
G01X11832Y55694D01*
G01X11832Y56148D02*
G01X11775Y56319D01*
G01X11662Y56432D01*
G01X11548Y56489D01*
G01X11377Y56489D01*
G01X11002Y56887D02*
G01X11002Y55694D01*
G01X11002Y56319D02*
G01X10889Y56432D01*
G01X10775Y56489D01*
G01X10605Y56489D01*
G01X10491Y56432D01*
G01X10377Y56319D01*
G01X10321Y56148D01*
G01X10321Y56035D01*
G01X10377Y55864D01*
G01X10491Y55750D01*
G01X10605Y55694D01*
G01X10775Y55694D01*
G01X10889Y55750D01*
G01X11002Y55864D01*
G01X9662Y56489D02*
G01X9775Y56432D01*
G01X9889Y56319D01*
G01X9946Y56148D01*
G01X9946Y56035D01*
G01X9889Y55864D01*
G01X9775Y55750D01*
G01X9662Y55694D01*
G01X9491Y55694D01*
G01X9377Y55750D01*
G01X9264Y55864D01*
G01X9207Y56035D01*
G01X9207Y56148D01*
G01X9264Y56319D01*
G01X9377Y56432D01*
G01X9491Y56489D01*
G01X9662Y56489D01*
G01X8662Y56887D02*
G01X8662Y55921D01*
G01X8605Y55750D01*
G01X8491Y55694D01*
G01X8377Y55694D01*
G01X8832Y56489D02*
G01X8434Y56489D01*
M00*
M02*
