G04 Layer: BottomLayer*
G04 EasyEDA v6.4.7, 2020-12-06T11:07:03+08:00*
G04 Gerber Generator version 0.2*
G04 Scale: 100 percent, Rotated: No, Reflected: No *
G04 Dimensions in millimeters *
G04 leading zeros omitted , absolute positions ,3 integer and 3 decimal *
%FSLAX33Y33*%
%MOMM*%
G90*
D02*

%ADD11C,0.499999*%
%ADD13C,1.999996*%
%ADD14R,1.574800X1.574800*%
%ADD15C,1.574800*%
%ADD18C,1.699997*%
%ADD19R,1.799996X1.799996*%
%ADD20C,1.799996*%
%ADD21R,1.799996X1.574800*%
%ADD23C,1.198880*%
%ADD24C,1.299997*%
%ADD25C,1.599997*%

%LPD*%

%LPD*%
G36*
G01X58494Y44299D02*
G01X58204Y44299D01*
G01X58204Y42910D01*
G01X58337Y42914D01*
G01X58471Y42918D01*
G01X58494Y44299D01*
G37*

%LPD*%
G36*
G01X74149Y42910D02*
G01X74149Y44327D01*
G01X74035Y44317D01*
G01X73989Y44313D01*
G01X73947Y44308D01*
G01X73912Y44305D01*
G01X73891Y44303D01*
G01X73879Y44281D01*
G01X73869Y44224D01*
G01X73862Y44141D01*
G01X73859Y44041D01*
G01X73858Y43784D01*
G01X73615Y44039D01*
G01X73544Y44112D01*
G01X73484Y44171D01*
G01X73432Y44216D01*
G01X73386Y44250D01*
G01X73343Y44275D01*
G01X73300Y44293D01*
G01X73255Y44304D01*
G01X73204Y44311D01*
G01X73139Y44316D01*
G01X73092Y44316D01*
G01X73061Y44311D01*
G01X73046Y44300D01*
G01X73047Y44280D01*
G01X73064Y44253D01*
G01X73096Y44217D01*
G01X73143Y44172D01*
G01X73168Y44148D01*
G01X73198Y44118D01*
G01X73230Y44084D01*
G01X73265Y44047D01*
G01X73301Y44007D01*
G01X73338Y43966D01*
G01X73373Y43925D01*
G01X73408Y43886D01*
G01X73564Y43699D01*
G01X73280Y43329D01*
G01X73223Y43254D01*
G01X73170Y43184D01*
G01X73122Y43118D01*
G01X73079Y43061D01*
G01X73044Y43011D01*
G01X73018Y42973D01*
G01X73002Y42947D01*
G01X72996Y42934D01*
G01X73007Y42925D01*
G01X73040Y42918D01*
G01X73089Y42914D01*
G01X73148Y42914D01*
G01X73196Y42916D01*
G01X73236Y42924D01*
G01X73274Y42939D01*
G01X73312Y42963D01*
G01X73352Y43000D01*
G01X73399Y43050D01*
G01X73455Y43119D01*
G01X73523Y43206D01*
G01X73569Y43264D01*
G01X73613Y43318D01*
G01X73655Y43367D01*
G01X73695Y43410D01*
G01X73729Y43445D01*
G01X73757Y43472D01*
G01X73779Y43489D01*
G01X73793Y43495D01*
G01X73814Y43475D01*
G01X73833Y43417D01*
G01X73848Y43326D01*
G01X73861Y43206D01*
G01X73881Y42918D01*
G01X74149Y42910D01*
G37*

%LPD*%
G36*
G01X68837Y44312D02*
G01X68804Y44314D01*
G01X68760Y44313D01*
G01X68711Y44307D01*
G01X68587Y44289D01*
G01X68587Y43489D01*
G01X68589Y43400D01*
G01X68591Y43327D01*
G01X68595Y43266D01*
G01X68600Y43216D01*
G01X68608Y43175D01*
G01X68618Y43141D01*
G01X68629Y43113D01*
G01X68644Y43087D01*
G01X68662Y43063D01*
G01X68683Y43037D01*
G01X68740Y42981D01*
G01X68804Y42945D01*
G01X68887Y42922D01*
G01X69002Y42910D01*
G01X69092Y42905D01*
G01X69164Y42906D01*
G01X69221Y42913D01*
G01X69262Y42927D01*
G01X69290Y42948D01*
G01X69305Y42976D01*
G01X69308Y43012D01*
G01X69300Y43057D01*
G01X69284Y43103D01*
G01X69259Y43129D01*
G01X69223Y43137D01*
G01X69170Y43132D01*
G01X69122Y43127D01*
G01X69068Y43128D01*
G01X69015Y43135D01*
G01X68970Y43147D01*
G01X68948Y43156D01*
G01X68931Y43166D01*
G01X68916Y43178D01*
G01X68904Y43196D01*
G01X68895Y43220D01*
G01X68888Y43253D01*
G01X68882Y43296D01*
G01X68879Y43352D01*
G01X68877Y43421D01*
G01X68876Y43507D01*
G01X68875Y43611D01*
G01X68875Y43845D01*
G01X68873Y43950D01*
G01X68872Y44045D01*
G01X68869Y44129D01*
G01X68866Y44200D01*
G01X68862Y44254D01*
G01X68859Y44290D01*
G01X68854Y44305D01*
G01X68837Y44312D01*
G37*

%LPD*%
G36*
G01X66038Y44333D02*
G01X65971Y44337D01*
G01X65904Y44336D01*
G01X65839Y44329D01*
G01X65776Y44318D01*
G01X65714Y44303D01*
G01X65655Y44282D01*
G01X65598Y44257D01*
G01X65545Y44229D01*
G01X65494Y44196D01*
G01X65447Y44158D01*
G01X65404Y44117D01*
G01X65365Y44072D01*
G01X65330Y44023D01*
G01X65301Y43970D01*
G01X65274Y43913D01*
G01X65252Y43855D01*
G01X65235Y43797D01*
G01X65223Y43740D01*
G01X65215Y43683D01*
G01X65210Y43627D01*
G01X65211Y43571D01*
G01X65216Y43517D01*
G01X65225Y43463D01*
G01X65237Y43412D01*
G01X65254Y43361D01*
G01X65273Y43313D01*
G01X65297Y43266D01*
G01X65324Y43221D01*
G01X65355Y43179D01*
G01X65388Y43139D01*
G01X65425Y43101D01*
G01X65465Y43066D01*
G01X65508Y43034D01*
G01X65553Y43006D01*
G01X65601Y42980D01*
G01X65651Y42958D01*
G01X65704Y42939D01*
G01X65760Y42924D01*
G01X65817Y42914D01*
G01X65877Y42907D01*
G01X65938Y42905D01*
G01X66001Y42907D01*
G01X66062Y42912D01*
G01X66119Y42921D01*
G01X66172Y42932D01*
G01X66220Y42946D01*
G01X66267Y42964D01*
G01X66311Y42985D01*
G01X66352Y43009D01*
G01X66392Y43038D01*
G01X66431Y43071D01*
G01X66468Y43109D01*
G01X66505Y43151D01*
G01X66542Y43198D01*
G01X66569Y43241D01*
G01X66592Y43294D01*
G01X66612Y43353D01*
G01X66626Y43417D01*
G01X66637Y43485D01*
G01X66644Y43555D01*
G01X66646Y43627D01*
G01X66644Y43697D01*
G01X66636Y43766D01*
G01X66625Y43831D01*
G01X66608Y43891D01*
G01X66587Y43945D01*
G01X66554Y44005D01*
G01X66511Y44064D01*
G01X66461Y44121D01*
G01X66407Y44174D01*
G01X66349Y44221D01*
G01X66289Y44261D01*
G01X66232Y44291D01*
G01X66176Y44310D01*
G01X66107Y44325D01*
G01X66038Y44333D01*
G37*

%LPC*%
G36*
G01X66000Y44122D02*
G01X65960Y44128D01*
G01X65919Y44126D01*
G01X65874Y44115D01*
G01X65823Y44096D01*
G01X65762Y44068D01*
G01X65715Y44042D01*
G01X65673Y44008D01*
G01X65635Y43969D01*
G01X65601Y43924D01*
G01X65572Y43875D01*
G01X65549Y43823D01*
G01X65530Y43767D01*
G01X65518Y43710D01*
G01X65512Y43651D01*
G01X65512Y43591D01*
G01X65519Y43532D01*
G01X65533Y43473D01*
G01X65552Y43417D01*
G01X65575Y43366D01*
G01X65602Y43319D01*
G01X65631Y43277D01*
G01X65663Y43238D01*
G01X65698Y43206D01*
G01X65735Y43178D01*
G01X65773Y43155D01*
G01X65814Y43138D01*
G01X65857Y43126D01*
G01X65900Y43119D01*
G01X65944Y43118D01*
G01X65989Y43123D01*
G01X66034Y43134D01*
G01X66080Y43151D01*
G01X66125Y43174D01*
G01X66182Y43212D01*
G01X66230Y43253D01*
G01X66271Y43299D01*
G01X66303Y43349D01*
G01X66329Y43405D01*
G01X66346Y43466D01*
G01X66357Y43533D01*
G01X66361Y43606D01*
G01X66358Y43684D01*
G01X66349Y43756D01*
G01X66334Y43820D01*
G01X66311Y43876D01*
G01X66281Y43928D01*
G01X66244Y43974D01*
G01X66200Y44014D01*
G01X66146Y44051D01*
G01X66090Y44084D01*
G01X66043Y44108D01*
G01X66000Y44122D01*
G37*

%LPD*%
G36*
G01X71388Y44299D02*
G01X71100Y44299D01*
G01X71100Y43144D01*
G01X70435Y43144D01*
G01X70461Y42918D01*
G01X70925Y42911D01*
G01X71388Y42904D01*
G01X71388Y44299D01*
G37*

%LPD*%
G36*
G01X62104Y44317D02*
G01X61986Y44328D01*
G01X62001Y43788D01*
G01X62004Y43685D01*
G01X62008Y43595D01*
G01X62011Y43515D01*
G01X62016Y43445D01*
G01X62021Y43385D01*
G01X62027Y43333D01*
G01X62034Y43288D01*
G01X62043Y43249D01*
G01X62052Y43216D01*
G01X62063Y43187D01*
G01X62076Y43161D01*
G01X62090Y43138D01*
G01X62120Y43098D01*
G01X62154Y43061D01*
G01X62192Y43028D01*
G01X62233Y42999D01*
G01X62276Y42974D01*
G01X62321Y42953D01*
G01X62369Y42935D01*
G01X62417Y42921D01*
G01X62468Y42911D01*
G01X62519Y42904D01*
G01X62570Y42901D01*
G01X62622Y42902D01*
G01X62673Y42906D01*
G01X62724Y42913D01*
G01X62774Y42925D01*
G01X62822Y42940D01*
G01X62869Y42959D01*
G01X62913Y42980D01*
G01X62955Y43006D01*
G01X62995Y43035D01*
G01X63031Y43067D01*
G01X63064Y43103D01*
G01X63092Y43143D01*
G01X63117Y43186D01*
G01X63130Y43218D01*
G01X63141Y43260D01*
G01X63152Y43310D01*
G01X63162Y43368D01*
G01X63170Y43432D01*
G01X63177Y43502D01*
G01X63183Y43574D01*
G01X63188Y43650D01*
G01X63191Y43727D01*
G01X63193Y43803D01*
G01X63194Y43879D01*
G01X63194Y43952D01*
G01X63192Y44022D01*
G01X63189Y44087D01*
G01X63184Y44146D01*
G01X63178Y44198D01*
G01X63170Y44241D01*
G01X63162Y44275D01*
G01X63151Y44298D01*
G01X63139Y44308D01*
G01X63112Y44313D01*
G01X63076Y44315D01*
G01X63035Y44313D01*
G01X62995Y44307D01*
G01X62965Y44300D01*
G01X62941Y44287D01*
G01X62924Y44265D01*
G01X62913Y44225D01*
G01X62906Y44165D01*
G01X62903Y44077D01*
G01X62901Y43956D01*
G01X62901Y43688D01*
G01X62900Y43596D01*
G01X62899Y43519D01*
G01X62896Y43455D01*
G01X62892Y43403D01*
G01X62886Y43359D01*
G01X62878Y43324D01*
G01X62868Y43295D01*
G01X62854Y43269D01*
G01X62838Y43247D01*
G01X62818Y43224D01*
G01X62795Y43200D01*
G01X62736Y43149D01*
G01X62684Y43120D01*
G01X62628Y43112D01*
G01X62559Y43120D01*
G01X62505Y43132D01*
G01X62459Y43146D01*
G01X62421Y43164D01*
G01X62389Y43188D01*
G01X62363Y43218D01*
G01X62342Y43258D01*
G01X62327Y43309D01*
G01X62314Y43372D01*
G01X62305Y43449D01*
G01X62299Y43543D01*
G01X62294Y43654D01*
G01X62289Y43785D01*
G01X62286Y43888D01*
G01X62282Y43985D01*
G01X62277Y44072D01*
G01X62272Y44149D01*
G01X62266Y44212D01*
G01X62260Y44261D01*
G01X62254Y44292D01*
G01X62248Y44303D01*
G01X62228Y44305D01*
G01X62194Y44309D01*
G01X62151Y44313D01*
G01X62104Y44317D01*
G37*

%LPD*%
G36*
G01X72420Y44330D02*
G01X72367Y44332D01*
G01X72306Y44330D01*
G01X72237Y44326D01*
G01X72165Y44317D01*
G01X72097Y44305D01*
G01X72034Y44288D01*
G01X71975Y44267D01*
G01X71921Y44242D01*
G01X71870Y44213D01*
G01X71824Y44179D01*
G01X71782Y44142D01*
G01X71745Y44100D01*
G01X71712Y44054D01*
G01X71683Y44004D01*
G01X71658Y43950D01*
G01X71639Y43891D01*
G01X71623Y43829D01*
G01X71612Y43762D01*
G01X71605Y43691D01*
G01X71602Y43631D01*
G01X71603Y43572D01*
G01X71608Y43516D01*
G01X71616Y43461D01*
G01X71627Y43410D01*
G01X71641Y43359D01*
G01X71659Y43312D01*
G01X71680Y43266D01*
G01X71705Y43223D01*
G01X71732Y43182D01*
G01X71763Y43143D01*
G01X71797Y43107D01*
G01X71834Y43073D01*
G01X71875Y43042D01*
G01X71919Y43013D01*
G01X71965Y42987D01*
G01X72022Y42961D01*
G01X72080Y42939D01*
G01X72138Y42922D01*
G01X72197Y42910D01*
G01X72256Y42903D01*
G01X72315Y42900D01*
G01X72374Y42901D01*
G01X72432Y42907D01*
G01X72489Y42917D01*
G01X72544Y42931D01*
G01X72599Y42949D01*
G01X72651Y42971D01*
G01X72701Y42997D01*
G01X72749Y43027D01*
G01X72794Y43061D01*
G01X72837Y43098D01*
G01X72875Y43139D01*
G01X72910Y43184D01*
G01X72942Y43231D01*
G01X72969Y43282D01*
G01X72991Y43335D01*
G01X73009Y43389D01*
G01X73022Y43444D01*
G01X73031Y43500D01*
G01X73036Y43555D01*
G01X73037Y43612D01*
G01X73034Y43668D01*
G01X73026Y43724D01*
G01X73015Y43779D01*
G01X73000Y43833D01*
G01X72982Y43886D01*
G01X72959Y43936D01*
G01X72934Y43986D01*
G01X72905Y44032D01*
G01X72873Y44077D01*
G01X72838Y44118D01*
G01X72799Y44156D01*
G01X72757Y44191D01*
G01X72713Y44223D01*
G01X72665Y44250D01*
G01X72611Y44276D01*
G01X72562Y44297D01*
G01X72515Y44313D01*
G01X72469Y44324D01*
G01X72420Y44330D01*
G37*

%LPC*%
G36*
G01X72391Y44113D02*
G01X72321Y44127D01*
G01X72251Y44114D01*
G01X72148Y44074D01*
G01X72105Y44052D01*
G01X72065Y44025D01*
G01X72029Y43992D01*
G01X71996Y43955D01*
G01X71967Y43914D01*
G01X71943Y43869D01*
G01X71923Y43821D01*
G01X71907Y43770D01*
G01X71897Y43716D01*
G01X71891Y43661D01*
G01X71890Y43604D01*
G01X71895Y43546D01*
G01X71910Y43467D01*
G01X71931Y43397D01*
G01X71958Y43335D01*
G01X71993Y43281D01*
G01X72035Y43235D01*
G01X72084Y43197D01*
G01X72141Y43166D01*
G01X72206Y43142D01*
G01X72278Y43126D01*
G01X72350Y43124D01*
G01X72418Y43133D01*
G01X72483Y43154D01*
G01X72543Y43187D01*
G01X72598Y43231D01*
G01X72646Y43285D01*
G01X72686Y43349D01*
G01X72708Y43398D01*
G01X72725Y43450D01*
G01X72736Y43503D01*
G01X72744Y43556D01*
G01X72746Y43611D01*
G01X72743Y43665D01*
G01X72735Y43718D01*
G01X72724Y43770D01*
G01X72709Y43820D01*
G01X72689Y43867D01*
G01X72665Y43912D01*
G01X72637Y43953D01*
G01X72606Y43990D01*
G01X72571Y44023D01*
G01X72533Y44050D01*
G01X72492Y44072D01*
G01X72391Y44113D01*
G37*

%LPD*%
G36*
G01X64857Y44314D02*
G01X64811Y44314D01*
G01X64761Y44310D01*
G01X64714Y44307D01*
G01X64673Y44304D01*
G01X64646Y44302D01*
G01X64633Y44292D01*
G01X64614Y44263D01*
G01X64590Y44219D01*
G01X64561Y44160D01*
G01X64529Y44089D01*
G01X64495Y44009D01*
G01X64459Y43919D01*
G01X64423Y43824D01*
G01X64247Y43349D01*
G01X64058Y43823D01*
G01X63869Y44298D01*
G01X63699Y44298D01*
G01X63529Y44299D01*
G01X63503Y43917D01*
G01X63498Y43863D01*
G01X63494Y43805D01*
G01X63490Y43744D01*
G01X63485Y43681D01*
G01X63476Y43554D01*
G01X63472Y43491D01*
G01X63467Y43430D01*
G01X63462Y43371D01*
G01X63458Y43315D01*
G01X63454Y43263D01*
G01X63451Y43217D01*
G01X63443Y43112D01*
G01X63438Y43033D01*
G01X63437Y42977D01*
G01X63442Y42939D01*
G01X63451Y42915D01*
G01X63468Y42903D01*
G01X63491Y42899D01*
G01X63523Y42898D01*
G01X63566Y42901D01*
G01X63607Y42907D01*
G01X63643Y42917D01*
G01X63669Y42929D01*
G01X63679Y42944D01*
G01X63689Y42975D01*
G01X63700Y43020D01*
G01X63711Y43078D01*
G01X63721Y43148D01*
G01X63731Y43227D01*
G01X63739Y43315D01*
G01X63746Y43410D01*
G01X63777Y43860D01*
G01X63961Y43399D01*
G01X64020Y43254D01*
G01X64066Y43142D01*
G01X64104Y43061D01*
G01X64136Y43004D01*
G01X64165Y42969D01*
G01X64194Y42949D01*
G01X64226Y42940D01*
G01X64265Y42938D01*
G01X64311Y42940D01*
G01X64349Y42942D01*
G01X64374Y42947D01*
G01X64384Y42952D01*
G01X64387Y42963D01*
G01X64397Y42991D01*
G01X64411Y43032D01*
G01X64431Y43087D01*
G01X64455Y43151D01*
G01X64482Y43225D01*
G01X64512Y43305D01*
G01X64544Y43391D01*
G01X64705Y43817D01*
G01X64730Y43512D01*
G01X64735Y43447D01*
G01X64741Y43382D01*
G01X64746Y43317D01*
G01X64751Y43254D01*
G01X64755Y43195D01*
G01X64759Y43142D01*
G01X64763Y43097D01*
G01X64765Y43062D01*
G01X64774Y42984D01*
G01X64793Y42941D01*
G01X64832Y42922D01*
G01X64899Y42918D01*
G01X64969Y42921D01*
G01X65006Y42945D01*
G01X65019Y43006D01*
G01X65020Y43124D01*
G01X65020Y43165D01*
G01X65018Y43214D01*
G01X65016Y43269D01*
G01X65013Y43331D01*
G01X65010Y43398D01*
G01X65006Y43469D01*
G01X65002Y43543D01*
G01X64997Y43618D01*
G01X64987Y43770D01*
G01X64982Y43844D01*
G01X64977Y43916D01*
G01X64972Y43985D01*
G01X64966Y44049D01*
G01X64962Y44107D01*
G01X64956Y44159D01*
G01X64952Y44203D01*
G01X64948Y44239D01*
G01X64945Y44265D01*
G01X64942Y44279D01*
G01X64927Y44296D01*
G01X64898Y44307D01*
G01X64857Y44314D01*
G37*

%LPD*%
G36*
G01X60222Y44299D02*
G01X59934Y44299D01*
G01X59934Y43445D01*
G01X59935Y43316D01*
G01X59936Y43208D01*
G01X59938Y43122D01*
G01X59941Y43052D01*
G01X59946Y42999D01*
G01X59952Y42960D01*
G01X59959Y42932D01*
G01X59969Y42913D01*
G01X59981Y42903D01*
G01X59996Y42899D01*
G01X60013Y42897D01*
G01X60050Y42898D01*
G01X60082Y42899D01*
G01X60110Y42903D01*
G01X60133Y42909D01*
G01X60154Y42920D01*
G01X60171Y42937D01*
G01X60184Y42960D01*
G01X60195Y42990D01*
G01X60205Y43029D01*
G01X60211Y43077D01*
G01X60216Y43135D01*
G01X60219Y43205D01*
G01X60221Y43288D01*
G01X60222Y43385D01*
G01X60222Y44299D01*
G37*

%LPD*%
G36*
G01X70276Y44319D02*
G01X69411Y44319D01*
G01X69411Y44169D01*
G01X69415Y44141D01*
G01X69426Y44120D01*
G01X69447Y44107D01*
G01X69482Y44098D01*
G01X69533Y44094D01*
G01X69604Y44093D01*
G01X69699Y44092D01*
G01X69987Y44092D01*
G01X69987Y43763D01*
G01X69719Y43763D01*
G01X69569Y43761D01*
G01X69489Y43748D01*
G01X69457Y43717D01*
G01X69452Y43660D01*
G01X69457Y43602D01*
G01X69489Y43571D01*
G01X69569Y43559D01*
G01X69719Y43556D01*
G01X69987Y43556D01*
G01X69987Y43144D01*
G01X69364Y43144D01*
G01X69390Y42918D01*
G01X70276Y42895D01*
G01X70276Y44319D01*
G37*

%LPD*%
G36*
G01X58640Y44329D02*
G01X58626Y44331D01*
G01X58622Y44325D01*
G01X58619Y44301D01*
G01X58616Y44264D01*
G01X58616Y44216D01*
G01X58619Y44145D01*
G01X58645Y44109D01*
G01X58712Y44094D01*
G01X58842Y44092D01*
G01X59069Y44092D01*
G01X59069Y42892D01*
G01X59203Y42905D01*
G01X59336Y42918D01*
G01X59348Y43505D01*
G01X59359Y44092D01*
G01X59585Y44092D01*
G01X59710Y44095D01*
G01X59777Y44108D01*
G01X59805Y44138D01*
G01X59810Y44194D01*
G01X59810Y44296D01*
G01X59223Y44309D01*
G01X59105Y44312D01*
G01X58995Y44314D01*
G01X58894Y44317D01*
G01X58806Y44320D01*
G01X58732Y44324D01*
G01X58676Y44326D01*
G01X58640Y44329D01*
G37*

%LPD*%
G36*
G01X61706Y42892D02*
G01X61706Y44325D01*
G01X61556Y44313D01*
G01X61497Y44307D01*
G01X61448Y44301D01*
G01X61413Y44295D01*
G01X61397Y44289D01*
G01X61389Y44278D01*
G01X61369Y44250D01*
G01X61338Y44206D01*
G01X61298Y44150D01*
G01X61251Y44082D01*
G01X61196Y44004D01*
G01X61137Y43920D01*
G01X61073Y43830D01*
G01X60758Y43382D01*
G01X60758Y44299D01*
G01X60511Y44299D01*
G01X60511Y42897D01*
G01X60632Y42897D01*
G01X60658Y42899D01*
G01X60682Y42903D01*
G01X60707Y42912D01*
G01X60731Y42926D01*
G01X60758Y42946D01*
G01X60787Y42974D01*
G01X60819Y43010D01*
G01X60857Y43056D01*
G01X60900Y43113D01*
G01X60950Y43181D01*
G01X61008Y43262D01*
G01X61075Y43357D01*
G01X61397Y43817D01*
G01X61417Y43367D01*
G01X61438Y42918D01*
G01X61706Y42892D01*
G37*

%LPD*%
G36*
G01X66821Y44319D02*
G01X66755Y44319D01*
G01X66700Y44316D01*
G01X66663Y44310D01*
G01X66650Y44301D01*
G01X66656Y44290D01*
G01X66671Y44270D01*
G01X66696Y44241D01*
G01X66729Y44205D01*
G01X66768Y44162D01*
G01X66814Y44115D01*
G01X66864Y44064D01*
G01X66972Y43956D01*
G01X67022Y43905D01*
G01X67067Y43857D01*
G01X67107Y43815D01*
G01X67140Y43778D01*
G01X67165Y43749D01*
G01X67180Y43729D01*
G01X67186Y43717D01*
G01X67180Y43705D01*
G01X67163Y43678D01*
G01X67136Y43639D01*
G01X67101Y43590D01*
G01X67059Y43532D01*
G01X67010Y43466D01*
G01X66956Y43395D01*
G01X66842Y43245D01*
G01X66789Y43174D01*
G01X66743Y43108D01*
G01X66704Y43050D01*
G01X66672Y43001D01*
G01X66650Y42963D01*
G01X66638Y42936D01*
G01X66638Y42923D01*
G01X66658Y42913D01*
G01X66694Y42905D01*
G01X66741Y42899D01*
G01X66793Y42897D01*
G01X66832Y42900D01*
G01X66869Y42907D01*
G01X66903Y42923D01*
G01X66939Y42950D01*
G01X66978Y42989D01*
G01X67025Y43043D01*
G01X67080Y43114D01*
G01X67146Y43205D01*
G01X67193Y43267D01*
G01X67237Y43324D01*
G01X67279Y43375D01*
G01X67317Y43419D01*
G01X67351Y43455D01*
G01X67379Y43481D01*
G01X67399Y43497D01*
G01X67412Y43501D01*
G01X67430Y43474D01*
G01X67447Y43408D01*
G01X67463Y43315D01*
G01X67474Y43203D01*
G01X67494Y42918D01*
G01X67629Y42905D01*
G01X67763Y42892D01*
G01X67763Y43752D01*
G01X67762Y43886D01*
G01X67761Y43995D01*
G01X67759Y44083D01*
G01X67756Y44152D01*
G01X67750Y44205D01*
G01X67744Y44243D01*
G01X67735Y44270D01*
G01X67723Y44287D01*
G01X67708Y44298D01*
G01X67691Y44304D01*
G01X67670Y44308D01*
G01X67612Y44315D01*
G01X67567Y44314D01*
G01X67533Y44304D01*
G01X67508Y44282D01*
G01X67490Y44246D01*
G01X67480Y44195D01*
G01X67475Y44125D01*
G01X67473Y44036D01*
G01X67472Y43784D01*
G01X67232Y44048D01*
G01X67159Y44128D01*
G01X67099Y44191D01*
G01X67048Y44238D01*
G01X67004Y44271D01*
G01X66963Y44294D01*
G01X66921Y44308D01*
G01X66875Y44316D01*
G01X66821Y44319D01*
G37*

%LPD*%
G36*
G01X77939Y47637D02*
G01X71718Y47637D01*
G01X71718Y46442D01*
G01X76559Y46421D01*
G01X76581Y41949D01*
G01X77939Y41949D01*
G01X77939Y47637D01*
G37*

%LPD*%
G36*
G01X70403Y42691D02*
G01X70149Y42691D01*
G01X70043Y42690D01*
G01X69954Y42689D01*
G01X69882Y42687D01*
G01X69825Y42684D01*
G01X69781Y42680D01*
G01X69749Y42673D01*
G01X69727Y42665D01*
G01X69712Y42655D01*
G01X69704Y42642D01*
G01X69700Y42627D01*
G01X69699Y42609D01*
G01X69706Y42565D01*
G01X69737Y42540D01*
G01X69806Y42529D01*
G01X69925Y42526D01*
G01X70150Y42526D01*
G01X70161Y41939D01*
G01X70173Y41352D01*
G01X70379Y41352D01*
G01X70391Y41939D01*
G01X70402Y42526D01*
G01X70627Y42526D01*
G01X70746Y42529D01*
G01X70814Y42540D01*
G01X70845Y42565D01*
G01X70853Y42609D01*
G01X70852Y42627D01*
G01X70848Y42642D01*
G01X70840Y42655D01*
G01X70825Y42665D01*
G01X70803Y42673D01*
G01X70770Y42680D01*
G01X70726Y42684D01*
G01X70669Y42687D01*
G01X70598Y42689D01*
G01X70509Y42690D01*
G01X70403Y42691D01*
G37*

%LPD*%
G36*
G01X58936Y42691D02*
G01X58584Y42691D01*
G01X58450Y42689D01*
G01X58351Y42686D01*
G01X58283Y42679D01*
G01X58240Y42669D01*
G01X58216Y42655D01*
G01X58206Y42635D01*
G01X58204Y42609D01*
G01X58211Y42565D01*
G01X58242Y42540D01*
G01X58311Y42529D01*
G01X58430Y42526D01*
G01X58657Y42526D01*
G01X58657Y41673D01*
G01X58658Y41579D01*
G01X58660Y41504D01*
G01X58663Y41446D01*
G01X58668Y41403D01*
G01X58675Y41372D01*
G01X58684Y41352D01*
G01X58696Y41341D01*
G01X58711Y41336D01*
G01X58728Y41336D01*
G01X58749Y41339D01*
G01X58771Y41342D01*
G01X58788Y41348D01*
G01X58803Y41357D01*
G01X58814Y41373D01*
G01X58824Y41395D01*
G01X58831Y41428D01*
G01X58837Y41473D01*
G01X58842Y41531D01*
G01X58845Y41605D01*
G01X58848Y41696D01*
G01X58851Y41807D01*
G01X58853Y41939D01*
G01X58865Y42526D01*
G01X59091Y42526D01*
G01X59209Y42529D01*
G01X59278Y42540D01*
G01X59309Y42565D01*
G01X59316Y42609D01*
G01X59314Y42635D01*
G01X59303Y42655D01*
G01X59280Y42669D01*
G01X59236Y42679D01*
G01X59168Y42686D01*
G01X59070Y42689D01*
G01X58936Y42691D01*
G37*

%LPD*%
G36*
G01X68041Y42684D02*
G01X67927Y42696D01*
G01X67930Y42251D01*
G01X67931Y42155D01*
G01X67933Y42069D01*
G01X67937Y41989D01*
G01X67942Y41916D01*
G01X67949Y41850D01*
G01X67957Y41790D01*
G01X67968Y41736D01*
G01X67980Y41687D01*
G01X67995Y41642D01*
G01X68012Y41603D01*
G01X68031Y41566D01*
G01X68053Y41533D01*
G01X68078Y41503D01*
G01X68106Y41475D01*
G01X68137Y41450D01*
G01X68170Y41425D01*
G01X68223Y41394D01*
G01X68279Y41370D01*
G01X68338Y41352D01*
G01X68400Y41340D01*
G01X68462Y41334D01*
G01X68525Y41333D01*
G01X68588Y41338D01*
G01X68649Y41348D01*
G01X68708Y41364D01*
G01X68765Y41384D01*
G01X68818Y41410D01*
G01X68867Y41439D01*
G01X68910Y41474D01*
G01X68947Y41512D01*
G01X68977Y41555D01*
G01X69000Y41602D01*
G01X69008Y41633D01*
G01X69015Y41681D01*
G01X69022Y41745D01*
G01X69028Y41821D01*
G01X69033Y41906D01*
G01X69037Y42000D01*
G01X69039Y42098D01*
G01X69040Y42199D01*
G01X69040Y42691D01*
G01X68834Y42691D01*
G01X68834Y42202D01*
G01X68833Y42056D01*
G01X68831Y41940D01*
G01X68826Y41849D01*
G01X68819Y41777D01*
G01X68809Y41722D01*
G01X68793Y41677D01*
G01X68774Y41640D01*
G01X68748Y41605D01*
G01X68700Y41553D01*
G01X68649Y41519D01*
G01X68588Y41502D01*
G01X68511Y41497D01*
G01X68461Y41499D01*
G01X68416Y41502D01*
G01X68377Y41507D01*
G01X68342Y41517D01*
G01X68312Y41530D01*
G01X68286Y41548D01*
G01X68264Y41572D01*
G01X68245Y41601D01*
G01X68229Y41638D01*
G01X68216Y41682D01*
G01X68206Y41735D01*
G01X68197Y41796D01*
G01X68190Y41867D01*
G01X68184Y41949D01*
G01X68179Y42042D01*
G01X68175Y42147D01*
G01X68154Y42670D01*
G01X68041Y42684D01*
G37*

%LPD*%
G36*
G01X60368Y42686D02*
G01X60310Y42691D01*
G01X60272Y42690D01*
G01X60240Y42682D01*
G01X60212Y42664D01*
G01X60185Y42633D01*
G01X60157Y42584D01*
G01X60124Y42513D01*
G01X60085Y42416D01*
G01X60036Y42289D01*
G01X60014Y42233D01*
G01X59991Y42174D01*
G01X59968Y42114D01*
G01X59945Y42053D01*
G01X59921Y41993D01*
G01X59898Y41934D01*
G01X59876Y41876D01*
G01X59855Y41822D01*
G01X59834Y41770D01*
G01X59815Y41723D01*
G01X59799Y41680D01*
G01X59784Y41643D01*
G01X59744Y41542D01*
G01X59716Y41464D01*
G01X59699Y41409D01*
G01X59694Y41371D01*
G01X59701Y41348D01*
G01X59720Y41336D01*
G01X59751Y41334D01*
G01X59795Y41339D01*
G01X59851Y41353D01*
G01X59895Y41386D01*
G01X59933Y41445D01*
G01X59971Y41537D01*
G01X60039Y41723D01*
G01X60307Y41735D01*
G01X60576Y41746D01*
G01X60651Y41539D01*
G01X60692Y41434D01*
G01X60730Y41371D01*
G01X60771Y41340D01*
G01X60824Y41331D01*
G01X60862Y41334D01*
G01X60894Y41342D01*
G01X60915Y41352D01*
G01X60923Y41366D01*
G01X60918Y41384D01*
G01X60906Y41423D01*
G01X60887Y41480D01*
G01X60861Y41553D01*
G01X60829Y41639D01*
G01X60794Y41736D01*
G01X60754Y41841D01*
G01X60712Y41953D01*
G01X60683Y42029D01*
G01X60655Y42103D01*
G01X60627Y42175D01*
G01X60601Y42244D01*
G01X60576Y42310D01*
G01X60553Y42371D01*
G01X60532Y42426D01*
G01X60512Y42476D01*
G01X60496Y42519D01*
G01X60483Y42554D01*
G01X60472Y42581D01*
G01X60466Y42598D01*
G01X60443Y42641D01*
G01X60411Y42670D01*
G01X60368Y42686D01*
G37*

%LPC*%
G36*
G01X60318Y42406D02*
G01X60303Y42412D01*
G01X60286Y42381D01*
G01X60259Y42321D01*
G01X60225Y42239D01*
G01X60189Y42145D01*
G01X60101Y41908D01*
G01X60311Y41908D01*
G01X60406Y41911D01*
G01X60467Y41920D01*
G01X60497Y41936D01*
G01X60500Y41960D01*
G01X60486Y41996D01*
G01X60464Y42059D01*
G01X60435Y42139D01*
G01X60404Y42226D01*
G01X60372Y42308D01*
G01X60342Y42370D01*
G01X60318Y42406D01*
G37*

%LPD*%
G36*
G01X61768Y42691D02*
G01X61665Y42691D01*
G01X61665Y41331D01*
G01X61768Y41331D01*
G01X61801Y41332D01*
G01X61826Y41337D01*
G01X61844Y41349D01*
G01X61857Y41372D01*
G01X61864Y41410D01*
G01X61868Y41464D01*
G01X61870Y41540D01*
G01X61870Y41949D01*
G01X62571Y41949D01*
G01X62571Y41540D01*
G01X62573Y41464D01*
G01X62577Y41410D01*
G01X62585Y41372D01*
G01X62597Y41349D01*
G01X62616Y41337D01*
G01X62640Y41332D01*
G01X62674Y41331D01*
G01X62777Y41331D01*
G01X62777Y42691D01*
G01X62674Y42691D01*
G01X62616Y42686D01*
G01X62585Y42654D01*
G01X62573Y42574D01*
G01X62571Y42423D01*
G01X62571Y42155D01*
G01X61870Y42155D01*
G01X61870Y42423D01*
G01X61868Y42574D01*
G01X61856Y42654D01*
G01X61826Y42686D01*
G01X61768Y42691D01*
G37*

%LPD*%
G36*
G01X64486Y42065D02*
G01X64246Y42695D01*
G01X64122Y42683D01*
G01X64094Y42680D01*
G01X64069Y42674D01*
G01X64047Y42663D01*
G01X64025Y42647D01*
G01X64004Y42622D01*
G01X63982Y42587D01*
G01X63957Y42539D01*
G01X63928Y42478D01*
G01X63896Y42401D01*
G01X63857Y42305D01*
G01X63811Y42190D01*
G01X63759Y42052D01*
G01X63726Y41968D01*
G01X63695Y41887D01*
G01X63666Y41808D01*
G01X63638Y41734D01*
G01X63612Y41664D01*
G01X63589Y41601D01*
G01X63569Y41543D01*
G01X63552Y41493D01*
G01X63527Y41418D01*
G01X63521Y41395D01*
G01X63519Y41383D01*
G01X63527Y41362D01*
G01X63548Y41346D01*
G01X63580Y41335D01*
G01X63618Y41331D01*
G01X63672Y41339D01*
G01X63712Y41370D01*
G01X63748Y41434D01*
G01X63787Y41539D01*
G01X63856Y41747D01*
G01X64394Y41723D01*
G01X64466Y41537D01*
G01X64507Y41444D01*
G01X64546Y41385D01*
G01X64592Y41353D01*
G01X64652Y41338D01*
G01X64703Y41335D01*
G01X64735Y41341D01*
G01X64749Y41355D01*
G01X64745Y41379D01*
G01X64741Y41392D01*
G01X64731Y41416D01*
G01X64719Y41450D01*
G01X64702Y41493D01*
G01X64683Y41545D01*
G01X64660Y41603D01*
G01X64636Y41669D01*
G01X64609Y41739D01*
G01X64580Y41816D01*
G01X64550Y41896D01*
G01X64518Y41979D01*
G01X64486Y42065D01*
G37*

%LPC*%
G36*
G01X64160Y42382D02*
G01X64142Y42416D01*
G01X64121Y42410D01*
G01X64092Y42360D01*
G01X64051Y42258D01*
G01X64018Y42173D01*
G01X63988Y42092D01*
G01X63963Y42024D01*
G01X63948Y41980D01*
G01X63943Y41943D01*
G01X63966Y41921D01*
G01X64026Y41911D01*
G01X64133Y41908D01*
G01X64341Y41908D01*
G01X64266Y42104D01*
G01X64235Y42186D01*
G01X64204Y42266D01*
G01X64178Y42335D01*
G01X64160Y42382D01*
G37*

%LPD*%
G36*
G01X71905Y42683D02*
G01X71873Y42686D01*
G01X71833Y42683D01*
G01X71806Y42680D01*
G01X71781Y42673D01*
G01X71759Y42662D01*
G01X71738Y42645D01*
G01X71716Y42620D01*
G01X71694Y42583D01*
G01X71669Y42535D01*
G01X71640Y42472D01*
G01X71607Y42393D01*
G01X71568Y42295D01*
G01X71521Y42177D01*
G01X71467Y42037D01*
G01X71434Y41951D01*
G01X71402Y41868D01*
G01X71372Y41789D01*
G01X71345Y41713D01*
G01X71319Y41643D01*
G01X71295Y41579D01*
G01X71274Y41522D01*
G01X71257Y41473D01*
G01X71243Y41431D01*
G01X71232Y41400D01*
G01X71226Y41378D01*
G01X71224Y41367D01*
G01X71231Y41353D01*
G01X71253Y41342D01*
G01X71286Y41334D01*
G01X71325Y41331D01*
G01X71379Y41339D01*
G01X71421Y41369D01*
G01X71458Y41432D01*
G01X71499Y41537D01*
G01X71573Y41743D01*
G01X72093Y41743D01*
G01X72179Y41537D01*
G01X72225Y41435D01*
G01X72267Y41372D01*
G01X72310Y41340D01*
G01X72362Y41331D01*
G01X72402Y41332D01*
G01X72430Y41337D01*
G01X72447Y41350D01*
G01X72452Y41374D01*
G01X72447Y41412D01*
G01X72430Y41468D01*
G01X72402Y41543D01*
G01X72362Y41643D01*
G01X72347Y41680D01*
G01X72331Y41723D01*
G01X72312Y41770D01*
G01X72292Y41822D01*
G01X72270Y41877D01*
G01X72248Y41934D01*
G01X72224Y41994D01*
G01X72201Y42055D01*
G01X72154Y42176D01*
G01X72131Y42235D01*
G01X72110Y42292D01*
G01X72059Y42422D01*
G01X72020Y42521D01*
G01X71987Y42592D01*
G01X71959Y42639D01*
G01X71933Y42668D01*
G01X71905Y42683D01*
G37*

%LPC*%
G36*
G01X71863Y42394D02*
G01X71845Y42401D01*
G01X71825Y42384D01*
G01X71802Y42345D01*
G01X71775Y42283D01*
G01X71740Y42197D01*
G01X71710Y42120D01*
G01X71683Y42050D01*
G01X71661Y41994D01*
G01X71647Y41960D01*
G01X71649Y41936D01*
G01X71680Y41920D01*
G01X71743Y41911D01*
G01X71841Y41908D01*
G01X71954Y41911D01*
G01X72015Y41920D01*
G01X72035Y41942D01*
G01X72026Y41980D01*
G01X72010Y42023D01*
G01X71985Y42088D01*
G01X71958Y42165D01*
G01X71929Y42246D01*
G01X71904Y42316D01*
G01X71883Y42366D01*
G01X71863Y42394D01*
G37*

%LPD*%
G36*
G01X73919Y42685D02*
G01X73809Y42687D01*
G01X73681Y42684D01*
G01X73582Y42679D01*
G01X73504Y42673D01*
G01X73442Y42665D01*
G01X73394Y42654D01*
G01X73355Y42638D01*
G01X73322Y42617D01*
G01X73291Y42590D01*
G01X73259Y42554D01*
G01X73217Y42500D01*
G01X73188Y42448D01*
G01X73170Y42398D01*
G01X73165Y42348D01*
G01X73173Y42300D01*
G01X73193Y42250D01*
G01X73226Y42200D01*
G01X73271Y42147D01*
G01X73310Y42103D01*
G01X73334Y42065D01*
G01X73343Y42041D01*
G01X73332Y42032D01*
G01X73293Y42025D01*
G01X73257Y42008D01*
G01X73224Y41980D01*
G01X73194Y41945D01*
G01X73169Y41902D01*
G01X73149Y41854D01*
G01X73134Y41802D01*
G01X73125Y41748D01*
G01X73122Y41693D01*
G01X73127Y41639D01*
G01X73139Y41587D01*
G01X73159Y41539D01*
G01X73179Y41511D01*
G01X73207Y41484D01*
G01X73243Y41458D01*
G01X73287Y41434D01*
G01X73336Y41412D01*
G01X73392Y41392D01*
G01X73452Y41374D01*
G01X73516Y41359D01*
G01X73584Y41347D01*
G01X73654Y41339D01*
G01X73726Y41333D01*
G01X73800Y41331D01*
G01X74066Y41331D01*
G01X74066Y42072D01*
G01X74065Y42158D01*
G01X74064Y42240D01*
G01X74062Y42316D01*
G01X74060Y42388D01*
G01X74057Y42454D01*
G01X74054Y42512D01*
G01X74051Y42562D01*
G01X74048Y42604D01*
G01X74044Y42636D01*
G01X74039Y42657D01*
G01X74035Y42667D01*
G01X73998Y42679D01*
G01X73919Y42685D01*
G37*

%LPC*%
G36*
G01X73861Y41496D02*
G01X73861Y42001D01*
G01X73673Y41980D01*
G01X73594Y41966D01*
G01X73517Y41944D01*
G01X73452Y41916D01*
G01X73406Y41886D01*
G01X73366Y41843D01*
G01X73341Y41799D01*
G01X73328Y41755D01*
G01X73327Y41711D01*
G01X73338Y41668D01*
G01X73359Y41629D01*
G01X73391Y41592D01*
G01X73431Y41560D01*
G01X73481Y41534D01*
G01X73539Y41513D01*
G01X73604Y41501D01*
G01X73675Y41496D01*
G01X73861Y41496D01*
G37*
G36*
G01X73861Y42526D02*
G01X73678Y42526D01*
G01X73598Y42522D01*
G01X73527Y42508D01*
G01X73471Y42488D01*
G01X73431Y42462D01*
G01X73406Y42432D01*
G01X73385Y42400D01*
G01X73371Y42370D01*
G01X73366Y42344D01*
G01X73373Y42309D01*
G01X73393Y42274D01*
G01X73424Y42241D01*
G01X73464Y42209D01*
G01X73513Y42181D01*
G01X73569Y42157D01*
G01X73629Y42138D01*
G01X73693Y42126D01*
G01X73861Y42103D01*
G01X73861Y42526D01*
G37*

%LPD*%
G36*
G01X66114Y42691D02*
G01X65811Y42691D01*
G01X65726Y42690D01*
G01X65654Y42687D01*
G01X65593Y42682D01*
G01X65540Y42673D01*
G01X65494Y42660D01*
G01X65451Y42644D01*
G01X65410Y42623D01*
G01X65368Y42597D01*
G01X65296Y42542D01*
G01X65252Y42488D01*
G01X65228Y42420D01*
G01X65216Y42325D01*
G01X65216Y42259D01*
G01X65225Y42197D01*
G01X65243Y42139D01*
G01X65269Y42086D01*
G01X65304Y42037D01*
G01X65347Y41994D01*
G01X65396Y41957D01*
G01X65453Y41925D01*
G01X65516Y41900D01*
G01X65585Y41882D01*
G01X65660Y41871D01*
G01X65740Y41867D01*
G01X65904Y41867D01*
G01X65917Y41609D01*
G01X65926Y41471D01*
G01X65942Y41391D01*
G01X65972Y41353D01*
G01X66022Y41339D01*
G01X66114Y41325D01*
G01X66114Y42691D01*
G37*

%LPC*%
G36*
G01X65908Y42526D02*
G01X65737Y42526D01*
G01X65661Y42521D01*
G01X65591Y42507D01*
G01X65533Y42486D01*
G01X65489Y42458D01*
G01X65455Y42419D01*
G01X65431Y42372D01*
G01X65418Y42323D01*
G01X65416Y42271D01*
G01X65423Y42220D01*
G01X65441Y42173D01*
G01X65468Y42130D01*
G01X65506Y42096D01*
G01X65553Y42071D01*
G01X65616Y42051D01*
G01X65685Y42037D01*
G01X65752Y42032D01*
G01X65908Y42032D01*
G01X65908Y42526D01*
G37*

%LPD*%
G36*
G01X76291Y46153D02*
G01X70235Y46153D01*
G01X70235Y44917D01*
G01X74890Y44917D01*
G01X74890Y40754D01*
G01X76291Y40754D01*
G01X76291Y46153D01*
G37*

%LPD*%
G54D11*
G01X48961Y3302D02*
G01X47520Y3302D01*
G01X47520Y3302D02*
G01X47520Y4020D01*
G01X42748Y8796D01*
G01X30820Y8796D01*
G01X27510Y5483D01*
G01X25217Y5483D01*
G01X23774Y6926D01*
G01X23774Y31948D01*
G01X23091Y32631D01*
G01X13241Y32631D01*
G01X6751Y39121D01*
G01X6751Y48369D01*
G01X11066Y52682D01*
G01X13200Y52682D01*
G01X28501Y19331D02*
G01X27061Y19331D01*
G01X27061Y19331D02*
G01X24975Y21417D01*
G01X24975Y33286D01*
G01X13200Y45062D01*
G01X50919Y34053D02*
G01X50919Y34597D01*
G01X40274Y45242D01*
G01X37117Y45242D01*
G01X29992Y52367D01*
G01X29992Y52682D01*
G01X28440Y52682D02*
G01X29992Y52682D01*
G01X55001Y28834D02*
G01X55001Y30271D01*
G01X48379Y49293D02*
G01X60464Y37208D01*
G01X72717Y37208D01*
G01X75295Y34632D01*
G01X75295Y33370D01*
G01X74538Y32613D01*
G01X57343Y32613D01*
G01X55001Y30271D01*
G01X57160Y54292D02*
G01X55559Y55892D01*
G01X43520Y55892D01*
G01X41920Y54292D01*
G01X73779Y49293D02*
G01X68780Y54292D01*
G01X57160Y54292D01*
G01X48379Y34053D02*
G01X46781Y35651D01*
G01X45189Y35651D01*
G01X44447Y36395D01*
G01X36753Y36395D01*
G01X31071Y30716D01*
G01X31071Y26603D01*
G01X30170Y25699D01*
G01X30170Y11262D01*
G01X25951Y7043D01*
G01X40759Y34053D02*
G01X39319Y35493D01*
G01X37127Y35493D01*
G01X36662Y35029D01*
G01X36662Y33113D01*
G01X38270Y31506D01*
G01X42989Y31506D01*
G01X45372Y29121D01*
G01X45372Y14795D01*
G01X42369Y11793D01*
G01X32999Y28562D02*
G01X38559Y23002D01*
G01X38559Y19293D01*
G01X53459Y49293D02*
G01X54620Y50454D01*
G01X54620Y54292D01*
G01X40759Y49293D02*
G01X39380Y50673D01*
G01X39380Y53721D01*
G01X32999Y17376D02*
G01X32999Y12491D01*
G01X32049Y11541D01*
G01X32999Y26022D02*
G01X32999Y17376D01*
G01X41099Y19293D02*
G01X41099Y18542D01*
G01X39933Y17376D01*
G01X32999Y17376D01*
G01X39380Y53721D02*
G01X39380Y54277D01*
G01X37912Y55745D01*
G01X27327Y55745D01*
G01X25984Y54399D01*
G01X25984Y37358D01*
G01X28440Y34902D01*
G01X39380Y53721D02*
G01X39380Y54292D01*
G01X45839Y34053D02*
G01X47177Y32715D01*
G01X47177Y28148D01*
G01X49022Y26304D01*
G01X13200Y34902D02*
G01X8039Y40063D01*
G01X8039Y47871D01*
G01X55001Y23754D02*
G01X55001Y10253D01*
G01X52999Y8252D01*
G01X26596Y28834D02*
G01X26596Y33055D01*
G01X28440Y34902D01*
G01X43639Y19293D02*
G01X43639Y18143D01*
G01X37289Y11793D01*
G01X37289Y11793D02*
G01X38844Y10238D01*
G01X45557Y10238D01*
G01X50325Y15006D01*
G01X50325Y21615D01*
G01X55001Y26294D01*
G01X26596Y26294D02*
G01X28575Y28272D01*
G01X28575Y32834D01*
G01X30129Y34389D01*
G01X30129Y43373D01*
G01X28440Y45062D01*
G01X38219Y49293D02*
G01X38219Y50733D01*
G01X38219Y50733D02*
G01X36840Y52113D01*
G01X36840Y54292D01*
G01X38219Y34053D02*
G01X39766Y32506D01*
G01X43263Y32506D01*
G01X46276Y29494D01*
G01X46276Y13159D01*
G01X44909Y11793D01*
G01X28440Y50142D02*
G01X28608Y50142D01*
G01X41445Y37304D01*
G01X45874Y37304D01*
G01X55999Y34053D02*
G01X43149Y46903D01*
G01X36748Y46903D01*
G01X34168Y49484D01*
G01X34168Y49804D01*
G01X29738Y54234D01*
G01X27218Y54234D01*
G01X26888Y53903D01*
G01X26888Y49154D01*
G01X28440Y47602D01*
G01X51300Y43848D02*
G01X47337Y47807D01*
G01X37122Y47807D01*
G01X35750Y49179D01*
G01X35750Y50777D01*
G01X32801Y43611D02*
G01X32801Y35783D01*
G01X29718Y32699D01*
G01X29718Y26875D01*
G01X26596Y23754D01*
G54D14*
G01X52999Y16792D03*
G54D15*
G01X52999Y19332D03*
G36*
G01X27712Y20120D02*
G01X29287Y20120D01*
G01X29287Y18545D01*
G01X27712Y18545D01*
G01X27712Y20120D01*
G37*
G01X28500Y16792D03*
G36*
G01X52212Y11580D02*
G01X53787Y11580D01*
G01X53787Y10005D01*
G01X52212Y10005D01*
G01X52212Y11580D01*
G37*
G01X52999Y8252D03*
G36*
G01X37558Y20542D02*
G01X39560Y20542D01*
G01X39560Y18043D01*
G01X37558Y18043D01*
G01X37558Y20542D01*
G37*
G36*
G01X36052Y55079D02*
G01X37627Y55079D01*
G01X37627Y53505D01*
G01X36052Y53505D01*
G01X36052Y55079D01*
G37*
G01X39380Y54292D03*
G01X41920Y54292D03*
G01X44460Y54292D03*
G01X47000Y54292D03*
G01X49540Y54292D03*
G01X52080Y54292D03*
G01X54620Y54292D03*
G01X57160Y54292D03*
G36*
G01X36439Y12643D02*
G01X38139Y12643D01*
G01X38139Y10943D01*
G01X36439Y10943D01*
G01X36439Y12643D01*
G37*
G54D18*
G01X39829Y11793D03*
G01X42369Y11793D03*
G01X44909Y11793D03*
G54D19*
G01X13200Y52682D03*
G54D20*
G01X13200Y50142D03*
G01X13200Y47602D03*
G01X13200Y45062D03*
G01X13200Y42522D03*
G01X13200Y39982D03*
G01X13200Y37442D03*
G01X13200Y34902D03*
G54D19*
G01X28440Y52682D03*
G54D20*
G01X28440Y50142D03*
G01X28440Y47602D03*
G01X28440Y45062D03*
G01X28440Y42522D03*
G01X28440Y39982D03*
G01X28440Y37442D03*
G01X28440Y34902D03*
G01X55001Y23753D03*
G01X55001Y26293D03*
G54D21*
G01X55001Y28833D03*
G54D20*
G01X26595Y28833D03*
G01X26595Y26293D03*
G54D21*
G01X26595Y23753D03*
G54D20*
G01X32539Y3302D03*
G01X29999Y3302D03*
G36*
G01X26672Y4201D02*
G01X28247Y4201D01*
G01X28247Y2402D01*
G01X26672Y2402D01*
G01X26672Y4201D01*
G37*
G01X54040Y3302D03*
G01X51500Y3302D03*
G36*
G01X48172Y4201D02*
G01X49747Y4201D01*
G01X49747Y2402D01*
G01X48172Y2402D01*
G01X48172Y4201D01*
G37*
G54D23*
G01X8040Y47870D03*
G01X2960Y47870D03*
G01X5500Y50715D03*
G54D15*
G01X73779Y49293D03*
G01X71239Y49293D03*
G01X68699Y49293D03*
G01X66159Y49293D03*
G01X63619Y49293D03*
G01X61079Y49293D03*
G01X58539Y49293D03*
G01X55999Y49293D03*
G01X53459Y49293D03*
G01X50919Y49293D03*
G01X48379Y49293D03*
G01X45839Y49293D03*
G01X43299Y49293D03*
G01X40759Y49293D03*
G36*
G01X37431Y50081D02*
G01X39006Y50081D01*
G01X39006Y48506D01*
G01X37431Y48506D01*
G01X37431Y50081D01*
G37*
G01X73779Y34053D03*
G01X71239Y34053D03*
G01X68699Y34053D03*
G01X66159Y34053D03*
G01X63619Y34053D03*
G01X61079Y34053D03*
G01X58539Y34053D03*
G01X55999Y34053D03*
G01X53459Y34053D03*
G01X50919Y34053D03*
G01X48379Y34053D03*
G01X45839Y34053D03*
G01X43299Y34053D03*
G01X40759Y34053D03*
G36*
G01X37431Y34841D02*
G01X39006Y34841D01*
G01X39006Y33266D01*
G01X37431Y33266D01*
G01X37431Y34841D01*
G37*
G54D20*
G01X32049Y11543D03*
G01X25949Y11543D03*
G01X25949Y7043D03*
G01X32049Y7043D03*
G54D24*
G01X49022Y28304D03*
G01X49022Y26305D03*
G54D25*
G01X32999Y28563D03*
G01X32999Y26023D03*
G54D13*
G01X32801Y43611D03*
G01X51300Y43848D03*
G01X35750Y50777D03*
G01X45874Y37304D03*
G01X41099Y19543D02*
G01X41099Y19043D01*
G01X43639Y19543D02*
G01X43639Y19043D01*
M00*
M02*
